<svg width="149" height="53" viewBox="0 0 149 53" fill="none" xmlns="http://www.w3.org/2000/svg">
<path d="M39.0595 2.67657L15.6121 0.00966052C14.8285 -0.0773039 14.1429 0.473471 14.1429 1.18851V51.8115C14.1429 52.5169 14.8285 53.0773 15.6023 52.9903L41.5962 50.2461C42.2525 50.1785 42.752 49.6664 42.752 49.0673V6.47402C42.752 4.54147 41.1751 2.90848 39.0595 2.67657ZM35.5532 46.468C35.5532 46.8545 35.23 47.1734 34.8088 47.1927L18.4622 48.3039C17.9921 48.3329 17.6003 48.0044 17.6003 47.5792V43.9267C17.6003 43.5402 17.9235 43.2213 18.3447 43.202L34.6913 42.1294C35.1614 42.1005 35.5532 42.4386 35.5532 42.8541V46.468ZM35.5532 39.3659C35.5532 39.8201 35.1712 40.1872 34.6717 40.2259L18.5993 41.2598C18.0509 41.2985 17.5905 40.9023 17.5905 40.3998V4.88933C17.5905 4.37721 18.0802 3.98104 18.6483 4.03901L33.8196 5.68168C34.8088 5.78797 35.5532 6.55132 35.5532 7.45961V39.3659ZM41.0184 20.4463C41.0184 20.6879 40.8323 20.8715 40.5972 20.8715H37.7373C37.512 20.8715 37.3162 20.6782 37.3162 20.4463V13.5665C37.3162 13.3056 37.5316 13.1123 37.7863 13.1413L40.6462 13.5085C40.8519 13.5375 41.0086 13.7211 41.0086 13.9336V20.4463H41.0184Z" fill="#00BAB5"/>
<path d="M10.7737 0.309157L0.930454 3.02438C0.372182 3.17898 0 3.64279 0 4.16458V49.2508C0 49.7919 0.401565 50.2654 0.969631 50.4007L10.8227 52.7584C11.6552 52.9613 12.4583 52.3912 12.4583 51.6085V1.43969C12.4583 0.647352 11.616 0.0772513 10.7737 0.309157Z" fill="#1F1F1F"/>
<path d="M64.4168 18.8809V16.2913C64.4168 15.6632 64.9359 15.1608 65.5627 15.1608H59.5784C57.4531 15.1608 55.935 15.7502 55.0241 16.9194C54.1035 18.0886 53.6431 19.8568 53.6431 22.1952C53.6431 24.0988 53.9761 25.5289 54.6421 26.4855C55.5726 27.7706 57.1201 28.476 59.2748 28.6016C59.7058 28.6403 60.2151 28.6692 60.8223 28.6982C61.4296 28.7272 62.0662 28.7562 62.7518 28.7852C63.4374 28.8142 65.122 28.8722 67.8056 28.9688C69.5294 29.0268 70.5676 29.0654 70.93 29.0847C71.5372 29.0847 72.0563 29.1041 72.4677 29.1331C72.8888 29.162 73.2904 29.2393 73.6822 29.365C74.0739 29.4906 74.3874 29.6838 74.6322 29.9737C74.8771 30.2539 74.9946 30.6308 74.9946 31.0849C74.9946 31.4908 74.9065 31.8096 74.7302 32.0609C74.5539 32.3121 74.3188 32.4957 74.0348 32.6213C73.7409 32.7469 73.4275 32.8339 73.0847 32.8725C72.7419 32.9112 72.3697 32.9305 71.9584 32.9305H55.4061C54.7695 32.9305 54.2504 33.4426 54.2504 34.0707V36.6796C54.2504 37.3077 54.7695 37.8198 55.4061 37.8198H74.9946C77.4334 37.8198 79.1963 37.2787 80.3031 36.1772C81.4098 35.0853 81.9583 33.317 81.9583 30.8627C81.9583 29.1137 81.6449 27.6547 81.0181 26.4855C80.166 25.0651 78.6674 24.3017 76.5225 24.1761C76.1111 24.1374 75.6019 24.1084 74.975 24.0795C74.3482 24.0505 73.5842 24.0215 72.6734 23.9828C71.7625 23.9442 70.1367 23.8862 67.7958 23.8186C66.1014 23.7606 65.0828 23.7219 64.7302 23.6929C64.6127 23.6929 64.4168 23.6929 64.1426 23.6929H63.5255C62.5951 23.6929 61.8605 23.577 61.3316 23.3451C60.8027 23.1132 60.5383 22.6397 60.5383 21.915C60.5383 21.4995 60.6166 21.171 60.7831 20.9197C60.9496 20.6685 61.1749 20.4849 61.4492 20.369C61.7234 20.2434 62.0172 20.1661 62.3306 20.1177C62.644 20.0791 62.9868 20.0501 63.3786 20.0501H79.9211C79.9995 20.0501 80.068 20.0211 80.1464 20.0018H65.5725C64.9359 20.0211 64.4168 19.509 64.4168 18.8809Z" fill="#00BAB5"/>
<path d="M81.116 18.9196C81.116 19.4704 80.7145 19.9149 80.1856 20.0211H81.9094L81.116 18.5911V18.9196Z" fill="#00BAB5"/>
<path d="M81.116 18.9195V18.591L79.2159 15.1704H65.5725C64.9359 15.1704 64.4266 15.6825 64.4266 16.3009V18.8906C64.4266 19.5186 64.9457 20.0211 65.5725 20.0211H80.1855C80.7144 19.9148 81.116 19.4703 81.116 18.9195Z" fill="#00BAB5"/>
<path d="M111.508 15.1704H106.219C105.788 15.1704 105.396 15.4023 105.19 15.7792L96.8358 31.2492C96.6203 31.6357 96.0522 31.6357 95.8466 31.2492L87.4921 15.7792C87.2864 15.4023 86.8946 15.1704 86.4637 15.1704H83.2218C83.8584 15.1704 84.3677 15.6825 84.3677 16.3009V18.8906C84.3677 19.5186 83.8486 20.0211 83.2218 20.0211H81.9093L91.4 37.1531C91.6057 37.5203 91.9974 37.7522 92.4186 37.7522H100.195C100.616 37.7522 101.008 37.5203 101.214 37.1627L112.526 16.871C112.947 16.098 112.389 15.1704 111.508 15.1704Z" fill="#1F1F1F"/>
<path d="M84.3775 18.8809V16.2913C84.3775 15.6632 83.8584 15.1608 83.2315 15.1608H79.9603C80.5969 15.1608 81.116 15.6729 81.116 16.301V18.5814L81.9093 20.0115H83.2217C83.8584 20.0211 84.3775 19.509 84.3775 18.8809Z" fill="#1F1F1F"/>
<path d="M81.116 16.3106C81.116 15.6825 80.5969 15.1704 79.9603 15.1704H79.2257L81.1258 18.591V16.3106H81.116Z" fill="#1F1F1F"/>
<path d="M147.844 15.1704H138.569C138.119 15.1704 137.707 15.4216 137.521 15.8275L133.927 23.3547L133.956 23.3064L140.528 23.0262L135.092 31.5874C134.886 31.9545 135.719 33.5392 135.298 33.5392H127.521C127.1 33.5392 127.443 32.6116 127.237 32.2444L122.369 23.0359L128.941 23.3161L128.961 23.3547L125.347 15.8468C125.151 15.4506 124.749 15.1897 124.299 15.1897H115.004C114.368 15.1897 113.848 15.7019 113.848 16.3299V36.7086C113.848 37.3367 114.368 37.8488 115.004 37.8488H119.343C119.98 37.8488 120.499 37.3367 120.499 36.7086V21.3449H120.587L128.736 37.2014C128.932 37.5879 129.333 37.8295 129.774 37.8295H133.172C133.613 37.8295 134.015 37.5879 134.211 37.2014L142.252 21.3449H142.369V36.6893C142.369 37.3174 142.888 37.8295 143.525 37.8295H147.844C148.481 37.8295 149 37.3174 149 36.6893V16.3106C149 15.6825 148.481 15.1704 147.844 15.1704Z" fill="#1F1F1F"/>
<path d="M131.468 28.4857L133.917 23.3548L131.938 27.0266C131.723 27.4131 131.155 27.4131 130.949 27.0266L128.961 23.3451L131.38 28.3794L131.468 28.4857Z" fill="#1F1F1F"/>
<path d="M122.369 23.0166L127.237 32.2252C127.443 32.5924 127.1 33.52 127.521 33.52H135.298C135.719 33.52 134.887 31.9353 135.092 31.5681L140.528 23.007L133.956 23.2872L133.927 23.3355L131.478 28.4664L131.39 28.3504L128.971 23.3162L128.951 23.2775L122.369 23.0166Z" fill="#1F1F1F"/>
</svg>
