<svg width="179" height="64" viewBox="0 0 179 64" fill="none" xmlns="http://www.w3.org/2000/svg">
<path d="M46.9238 3.23208L18.7554 0.0116609C17.8141 -0.0933527 16.9905 0.571734 16.9905 1.43518V62.5648C16.9905 63.4166 17.8141 64.0933 18.7437 63.9883L49.9713 60.6746C50.7596 60.5929 51.3597 59.9745 51.3597 59.251V7.81768C51.3597 5.48404 49.4653 3.51212 46.9238 3.23208ZM42.7115 56.1123C42.7115 56.579 42.3232 56.9641 41.8173 56.9874L22.1794 58.3293C21.6146 58.3643 21.144 57.9675 21.144 57.4541V53.0436C21.144 52.5768 21.5323 52.1918 22.0382 52.1685L41.6761 50.8733C42.2409 50.8383 42.7115 51.2467 42.7115 51.7484V56.1123ZM42.7115 47.5362C42.7115 48.0846 42.2526 48.528 41.6525 48.5747L22.3441 49.8232C21.6852 49.8698 21.1322 49.3914 21.1322 48.7847V5.9041C21.1322 5.28568 21.7205 4.80729 22.403 4.87729L40.6289 6.86089C41.8173 6.98924 42.7115 7.91102 42.7115 9.00783V47.5362ZM49.2771 24.6899C49.2771 24.9816 49.0535 25.2033 48.7711 25.2033H45.3354C45.0648 25.2033 44.8294 24.9699 44.8294 24.6899V16.3821C44.8294 16.0671 45.0883 15.8337 45.3942 15.8687L48.83 16.3121C49.077 16.3471 49.2653 16.5688 49.2653 16.8255V24.6899H49.2771Z" fill="white"/>
<path d="M12.9429 0.373335L1.11779 3.6521C0.447118 3.83879 0 4.39886 0 5.02894V59.4727C0 60.1261 0.482416 60.6979 1.16486 60.8612L13.0017 63.7082C14.0018 63.9533 14.9667 63.2649 14.9667 62.3197V1.73851C14.9667 0.781722 13.9548 0.0932985 12.9429 0.373335Z" fill="white"/>
<path d="M77.3866 22.7996V19.6726C77.3866 18.9141 78.0102 18.3074 78.7633 18.3074H71.5741C69.0208 18.3074 67.197 19.0191 66.1028 20.431C64.9967 21.8428 64.4437 23.9781 64.4437 26.8018C64.4437 29.1004 64.8438 30.8273 65.6439 31.9825C66.7617 33.5344 68.6207 34.3861 71.2093 34.5378C71.727 34.5845 72.3389 34.6195 73.0684 34.6545C73.7979 34.6895 74.5627 34.7245 75.3863 34.7595C76.21 34.7945 78.2338 34.8645 81.4577 34.9812C83.5286 35.0512 84.7758 35.0979 85.2112 35.1212C85.9407 35.1212 86.5643 35.1446 87.0585 35.1796C87.5644 35.2146 88.0468 35.3079 88.5175 35.4596C88.9881 35.6113 89.3646 35.8447 89.6588 36.1947C89.953 36.5331 90.0942 36.9881 90.0942 37.5365C90.0942 38.0266 89.9883 38.4117 89.7765 38.715C89.5647 39.0184 89.2823 39.2401 88.9411 39.3918C88.5881 39.5435 88.2116 39.6485 87.7997 39.6952C87.3879 39.7418 86.9408 39.7652 86.4466 39.7652H66.5617C65.7968 39.7652 65.1732 40.3836 65.1732 41.142V44.2924C65.1732 45.0509 65.7968 45.6693 66.5617 45.6693H90.0942C93.024 45.6693 95.1419 45.0159 96.4715 43.6857C97.801 42.3672 98.46 40.2319 98.46 37.2682C98.46 35.1562 98.0834 33.3943 97.3304 31.9825C96.3067 30.2673 94.5065 29.3455 91.9297 29.1938C91.4355 29.1471 90.8237 29.1121 90.0706 29.0771C89.3176 29.0421 88.3998 29.0071 87.3055 28.9604C86.2113 28.9138 84.2581 28.8437 81.446 28.7621C79.4104 28.6921 78.1867 28.6454 77.7631 28.6104C77.6219 28.6104 77.3866 28.6104 77.0571 28.6104H76.3159C75.1981 28.6104 74.3156 28.4704 73.6802 28.1903C73.0449 27.9103 72.7272 27.3385 72.7272 26.4634C72.7272 25.9617 72.8213 25.565 73.0213 25.2616C73.2214 24.9582 73.492 24.7365 73.8214 24.5965C74.1509 24.4448 74.5039 24.3515 74.8804 24.2932C75.2569 24.2465 75.6687 24.2115 76.1394 24.2115H96.0126C96.1067 24.2115 96.1891 24.1765 96.2832 24.1531H78.775C78.0102 24.1765 77.3866 23.5581 77.3866 22.7996Z" fill="white"/>
<path d="M97.4481 22.8463C97.4481 23.5114 96.9657 24.0481 96.3303 24.1765H98.4012L97.4481 22.4496V22.8463Z" fill="white"/>
<path d="M97.4482 22.8462V22.4495L95.1655 18.319H78.7751C78.0103 18.319 77.3984 18.9374 77.3984 19.6841V22.8112C77.3984 23.5697 78.022 24.1764 78.7751 24.1764H96.3304C96.9657 24.048 97.4482 23.5113 97.4482 22.8462Z" fill="white"/>
<path d="M133.959 18.319H127.605C127.087 18.319 126.617 18.599 126.37 19.0541L116.333 37.7348C116.074 38.2016 115.392 38.2016 115.145 37.7348L105.108 19.0541C104.861 18.599 104.39 18.319 103.872 18.319H99.9778C100.743 18.319 101.354 18.9374 101.354 19.6841V22.8112C101.354 23.5697 100.731 24.1764 99.9778 24.1764H98.4011L109.803 44.8641C110.05 45.3075 110.52 45.5875 111.026 45.5875H120.369C120.875 45.5875 121.345 45.3075 121.592 44.8758L135.182 20.3726C135.688 19.4391 135.018 18.319 133.959 18.319Z" fill="white"/>
<path d="M101.366 22.7996V19.6726C101.366 18.9141 100.743 18.3074 99.9896 18.3074H96.0597C96.8245 18.3074 97.4481 18.9258 97.4481 19.6842V22.4379L98.4012 24.1648H99.9778C100.743 24.1765 101.366 23.5581 101.366 22.7996Z" fill="white"/>
<path d="M97.4481 19.6958C97.4481 18.9374 96.8245 18.319 96.0597 18.319H95.1772L97.4599 22.4495V19.6958H97.4481Z" fill="white"/>
<path d="M177.612 18.319H166.469C165.928 18.319 165.434 18.6223 165.21 19.1124L160.892 28.2019L160.927 28.1436L168.822 27.8052L162.292 38.1432C162.045 38.5866 163.045 40.5002 162.539 40.5002H153.197C152.691 40.5002 153.102 39.38 152.855 38.9367L147.008 27.8169L154.903 28.1552L154.926 28.2019L150.585 19.1357C150.349 18.6573 149.867 18.3423 149.326 18.3423H138.159C137.395 18.3423 136.771 18.9607 136.771 19.7192V44.3274C136.771 45.0858 137.395 45.7042 138.159 45.7042H143.372C144.137 45.7042 144.76 45.0858 144.76 44.3274V25.7749H144.866L154.656 44.9224C154.891 45.3892 155.373 45.6809 155.903 45.6809H159.986C160.515 45.6809 160.998 45.3892 161.233 44.9224L170.893 25.7749H171.034V44.304C171.034 45.0625 171.658 45.6809 172.423 45.6809H177.612C178.376 45.6809 179 45.0625 179 44.304V19.6958C179 18.9374 178.376 18.319 177.612 18.319Z" fill="white"/>
<path d="M157.938 34.3978L160.88 28.202L158.503 32.6359C158.244 33.1026 157.562 33.1026 157.315 32.6359L154.926 28.1903L157.832 34.2694L157.938 34.3978Z" fill="white"/>
<path d="M147.008 27.7937L152.855 38.9134C153.103 39.3568 152.691 40.477 153.197 40.477H162.539C163.045 40.477 162.045 38.5634 162.292 38.12L168.822 27.782L160.927 28.1204L160.892 28.1787L157.95 34.3745L157.844 34.2345L154.938 28.1554L154.915 28.1087L147.008 27.7937Z" fill="white"/>
</svg>
