<svg width="160" height="160" viewBox="0 0 160 160" fill="none" xmlns="http://www.w3.org/2000/svg">
<rect x="0.5" y="0.5" width="159" height="159" rx="7.5" fill="#F5F8FB" stroke="#00BAB5" stroke-dasharray="8 8"/>
<path fill-rule="evenodd" clip-rule="evenodd" d="M61.9925 61.2686C61.9925 56.8485 65.5757 53.2653 69.9958 53.2653H90.0042C94.4243 53.2653 98.0075 56.8485 98.0075 61.2686V81.2769C98.0075 85.697 94.4243 89.2803 90.0042 89.2803H69.9958C65.5757 89.2803 61.9925 85.697 61.9925 81.2769V61.2686Z" fill="#00DAD4" fill-opacity="0.1" stroke="#00BAB5" stroke-width="2.5" stroke-linecap="round" stroke-linejoin="round"/>
<path d="M80 79.2762L89.1758 70.1003C90.7385 68.5382 93.2715 68.5382 94.8342 70.1003L98.0075 73.2737" stroke="#00BAB5" stroke-width="2.5" stroke-linecap="round" stroke-linejoin="round"/>
<path fill-rule="evenodd" clip-rule="evenodd" d="M70.9963 65.2703C72.6538 65.2703 73.9975 63.9266 73.9975 62.2691C73.9975 60.6115 72.6538 59.2678 70.9963 59.2678C69.3387 59.2678 67.995 60.6115 67.995 62.2691C67.995 63.9266 69.3387 65.2703 70.9963 65.2703Z" stroke="#00BAB5" stroke-width="2.5" stroke-linecap="round" stroke-linejoin="round"/>
<path d="M62.6988 84.5663L71.1623 76.1028C72.725 74.5406 75.258 74.5406 76.8207 76.1028L89.66 88.9421" stroke="#00BAB5" stroke-width="2.5" stroke-linecap="round" stroke-linejoin="round"/>
<path d="M31.4072 117.273H29.6777L25.2412 110.211V117.273H23.5117V107.32H25.2412L29.6914 114.409V107.32H31.4072V117.273ZM34.9277 110.683C35.4701 110.054 36.1559 109.74 36.9854 109.74C38.5622 109.74 39.362 110.64 39.3848 112.44V117.273H37.7236V112.501C37.7236 111.991 37.612 111.631 37.3887 111.421C37.1699 111.207 36.8464 111.1 36.418 111.1C35.7526 111.1 35.2559 111.396 34.9277 111.989V117.273H33.2666V106.773H34.9277V110.683ZM44.3271 117.41C43.2744 117.41 42.4199 117.079 41.7637 116.418C41.112 115.753 40.7861 114.869 40.7861 113.766V113.561C40.7861 112.823 40.9274 112.164 41.21 111.585C41.4971 111.002 41.8981 110.549 42.4131 110.225C42.9281 109.901 43.5023 109.74 44.1357 109.74C45.1429 109.74 45.9199 110.061 46.4668 110.703C47.0182 111.346 47.2939 112.255 47.2939 113.431V114.101H42.4609C42.5111 114.712 42.7139 115.195 43.0693 115.55C43.4294 115.906 43.8805 116.083 44.4229 116.083C45.1839 116.083 45.8037 115.776 46.2822 115.161L47.1777 116.015C46.8815 116.457 46.485 116.801 45.9883 117.047C45.4961 117.289 44.9424 117.41 44.3271 117.41ZM44.1289 111.073C43.6732 111.073 43.304 111.232 43.0215 111.551C42.7435 111.87 42.5658 112.314 42.4883 112.884H45.6533V112.761C45.6169 112.205 45.4688 111.786 45.209 111.503C44.9492 111.216 44.5892 111.073 44.1289 111.073ZM43.459 107.121H44.5596L46.5488 108.83H45.0996L44.0127 107.86L42.9258 108.83H41.4697L43.459 107.121ZM47.0684 105.925H48.5859L47.1094 107.75H46.0361L47.0684 105.925ZM50.1309 109.876L50.1787 110.731C50.7256 110.07 51.4434 109.74 52.332 109.74C53.8724 109.74 54.6562 110.621 54.6836 112.385V117.273H53.0225V112.481C53.0225 112.011 52.9199 111.665 52.7148 111.442C52.5143 111.214 52.1839 111.1 51.7236 111.1C51.0537 111.1 50.5547 111.403 50.2266 112.009V117.273H48.5654V109.876H50.1309ZM67.2344 108.906H66.0381V117.273H64.5342L64.4521 116.507C63.9554 117.109 63.2923 117.41 62.4629 117.41C61.597 117.41 60.8952 117.061 60.3574 116.364C59.8242 115.666 59.5576 114.718 59.5576 113.52C59.5576 112.381 59.8219 111.467 60.3506 110.779C60.8792 110.086 61.5879 109.74 62.4766 109.74C63.2604 109.74 63.8939 110.013 64.377 110.56V108.906H62.6611V107.744H64.377V106.773H66.0381V107.744H67.2344V108.906ZM61.2188 113.663C61.2188 114.415 61.3623 115.003 61.6494 115.427C61.9411 115.846 62.3535 116.056 62.8867 116.056C63.5658 116.056 64.0625 115.753 64.377 115.147V111.989C64.0716 111.396 63.5794 111.1 62.9004 111.1C62.3626 111.1 61.9479 111.314 61.6562 111.743C61.3646 112.166 61.2188 112.807 61.2188 113.663ZM71.7529 117.41C70.7002 117.41 69.8457 117.079 69.1895 116.418C68.5378 115.753 68.2119 114.869 68.2119 113.766V113.561C68.2119 112.823 68.3532 112.164 68.6357 111.585C68.9229 111.002 69.3239 110.549 69.8389 110.225C70.3538 109.901 70.9281 109.74 71.5615 109.74C72.5687 109.74 73.3457 110.061 73.8926 110.703C74.444 111.346 74.7197 112.255 74.7197 113.431V114.101H69.8867C69.9368 114.712 70.1396 115.195 70.4951 115.55C70.8551 115.906 71.3063 116.083 71.8486 116.083C72.6097 116.083 73.2295 115.776 73.708 115.161L74.6035 116.015C74.3073 116.457 73.9108 116.801 73.4141 117.047C72.9219 117.289 72.3682 117.41 71.7529 117.41ZM71.5547 111.073C71.099 111.073 70.7298 111.232 70.4473 111.551C70.1693 111.87 69.9915 112.314 69.9141 112.884H73.0791V112.761C73.0426 112.205 72.8945 111.786 72.6348 111.503C72.375 111.216 72.015 111.073 71.5547 111.073ZM73.9678 108.926H72.6484L71.4248 107.819L70.208 108.926H68.8887L70.7891 107.217H72.0674L73.9678 108.926ZM73.332 108.01L73.2842 107.156C73.5713 107.133 73.7786 107.094 73.9062 107.039C74.0339 106.985 74.0977 106.891 74.0977 106.759C74.0977 106.477 73.8037 106.335 73.2158 106.335L73.2637 105.618C73.888 105.618 74.3597 105.72 74.6787 105.925C74.9977 106.126 75.1572 106.397 75.1572 106.739C75.1572 106.989 75.0729 107.19 74.9043 107.34C74.7402 107.486 74.5306 107.575 74.2754 107.607L74.2686 108.01H73.332ZM81.583 108.078V109.876H82.8887V111.107H81.583V115.236C81.583 115.518 81.6377 115.723 81.7471 115.851C81.861 115.974 82.0615 116.036 82.3486 116.036C82.54 116.036 82.7337 116.013 82.9297 115.967V117.252C82.5514 117.357 82.1868 117.41 81.8359 117.41C80.5599 117.41 79.9219 116.705 79.9219 115.297V111.107H78.7051V109.876H79.9219V108.078H81.583ZM85.8008 110.683C86.3431 110.054 87.029 109.74 87.8584 109.74C89.4352 109.74 90.235 110.64 90.2578 112.44V117.273H88.5967V112.501C88.5967 111.991 88.485 111.631 88.2617 111.421C88.043 111.207 87.7194 111.1 87.291 111.1C86.6257 111.1 86.1289 111.396 85.8008 111.989V117.273H84.1396V106.773H85.8008V110.683ZM95.2002 117.41C94.1475 117.41 93.293 117.079 92.6367 116.418C91.985 115.753 91.6592 114.869 91.6592 113.766V113.561C91.6592 112.823 91.8005 112.164 92.083 111.585C92.3701 111.002 92.7712 110.549 93.2861 110.225C93.8011 109.901 94.3753 109.74 95.0088 109.74C96.016 109.74 96.793 110.061 97.3398 110.703C97.8913 111.346 98.167 112.255 98.167 113.431V114.101H93.334C93.3841 114.712 93.5869 115.195 93.9424 115.55C94.3024 115.906 94.7536 116.083 95.2959 116.083C96.057 116.083 96.6768 115.776 97.1553 115.161L98.0508 116.015C97.7546 116.457 97.3581 116.801 96.8613 117.047C96.3691 117.289 95.8154 117.41 95.2002 117.41ZM95.002 111.073C94.5462 111.073 94.1771 111.232 93.8945 111.551C93.6165 111.87 93.4388 112.314 93.3613 112.884H96.5264V112.761C96.4899 112.205 96.3418 111.786 96.082 111.503C95.8223 111.216 95.4622 111.073 95.002 111.073ZM97.2441 108.666V108.742H95.9111L94.8857 107.675L93.8672 108.742H92.5479V108.653L94.4004 106.766H95.3779L97.2441 108.666ZM101.024 109.876L101.072 110.649C101.592 110.043 102.303 109.74 103.205 109.74C104.194 109.74 104.871 110.118 105.235 110.874C105.773 110.118 106.53 109.74 107.505 109.74C108.321 109.74 108.927 109.965 109.323 110.416C109.724 110.868 109.929 111.533 109.938 112.412V117.273H108.277V112.46C108.277 111.991 108.175 111.647 107.97 111.428C107.765 111.209 107.425 111.1 106.951 111.1C106.573 111.1 106.263 111.203 106.021 111.408C105.785 111.608 105.618 111.872 105.522 112.201L105.529 117.273H103.868V112.406C103.845 111.535 103.401 111.1 102.535 111.1C101.87 111.1 101.398 111.371 101.12 111.913V117.273H99.459V109.876H101.024ZM119.55 117.273C119.477 117.132 119.413 116.901 119.358 116.582C118.83 117.134 118.183 117.41 117.417 117.41C116.674 117.41 116.068 117.198 115.599 116.774C115.129 116.35 114.895 115.826 114.895 115.202C114.895 114.413 115.186 113.809 115.77 113.39C116.357 112.966 117.196 112.754 118.285 112.754H119.304V112.269C119.304 111.886 119.197 111.581 118.982 111.353C118.768 111.12 118.442 111.004 118.005 111.004C117.627 111.004 117.317 111.1 117.075 111.291C116.834 111.478 116.713 111.717 116.713 112.009H115.052C115.052 111.604 115.186 111.225 115.455 110.874C115.724 110.519 116.089 110.241 116.549 110.04C117.014 109.84 117.531 109.74 118.101 109.74C118.966 109.74 119.657 109.958 120.172 110.396C120.687 110.829 120.951 111.439 120.965 112.228V115.564C120.965 116.229 121.058 116.76 121.245 117.157V117.273H119.55ZM117.725 116.077C118.053 116.077 118.36 115.997 118.647 115.837C118.939 115.678 119.158 115.464 119.304 115.195V113.8H118.408C117.793 113.8 117.33 113.907 117.021 114.121C116.711 114.336 116.556 114.639 116.556 115.031C116.556 115.35 116.66 115.605 116.87 115.796C117.084 115.983 117.369 116.077 117.725 116.077ZM117.561 108.66L117.513 107.661C117.845 107.639 118.085 107.595 118.23 107.532C118.381 107.468 118.456 107.356 118.456 107.197C118.456 106.869 118.114 106.704 117.431 106.704L117.479 105.864C118.249 105.864 118.827 105.982 119.215 106.219C119.607 106.456 119.803 106.775 119.803 107.176C119.803 107.45 119.714 107.675 119.536 107.853C119.358 108.031 119.105 108.142 118.777 108.188V108.66H117.561ZM124.246 109.876L124.294 110.731C124.841 110.07 125.559 109.74 126.447 109.74C127.988 109.74 128.771 110.621 128.799 112.385V117.273H127.138V112.481C127.138 112.011 127.035 111.665 126.83 111.442C126.63 111.214 126.299 111.1 125.839 111.1C125.169 111.1 124.67 111.403 124.342 112.009V117.273H122.681V109.876H124.246ZM132.135 110.683C132.677 110.054 133.363 109.74 134.192 109.74C135.769 109.74 136.569 110.64 136.592 112.44V117.273H134.931V112.501C134.931 111.991 134.819 111.631 134.596 111.421C134.377 111.207 134.053 111.1 133.625 111.1C132.96 111.1 132.463 111.396 132.135 111.989V117.273H130.474V106.773H132.135V110.683Z" fill="#4D5971"/>
</svg>
