<svg width="16" height="16" viewBox="0 0 16 16" fill="none" xmlns="http://www.w3.org/2000/svg">
<path d="M4.66666 8H4.0606C3.89324 8 3.75757 8.13567 3.75757 8.30303C3.75757 8.47039 3.89324 8.60606 4.0606 8.60606H4.66666C4.83402 8.60606 4.96969 8.47039 4.96969 8.30303C4.96969 8.13567 4.83402 8 4.66666 8Z" stroke="#4D5971" stroke-miterlimit="10" stroke-linecap="square"/>
<path d="M8.30289 8H7.69683C7.52947 8 7.3938 8.13567 7.3938 8.30303C7.3938 8.47039 7.52947 8.60606 7.69683 8.60606H8.30289C8.47025 8.60606 8.60592 8.47039 8.60592 8.30303C8.60592 8.13567 8.47025 8 8.30289 8Z" stroke="#4D5971" stroke-miterlimit="10" stroke-linecap="square"/>
<path d="M4.66666 11.0303H4.0606C3.89324 11.0303 3.75757 11.1659 3.75757 11.3333C3.75757 11.5007 3.89324 11.6363 4.0606 11.6363H4.66666C4.83402 11.6363 4.96969 11.5007 4.96969 11.3333C4.96969 11.1659 4.83402 11.0303 4.66666 11.0303Z" stroke="#4D5971" stroke-miterlimit="10" stroke-linecap="square"/>
<path d="M8.30289 11.0303H7.69683C7.52947 11.0303 7.3938 11.1659 7.3938 11.3333C7.3938 11.5007 7.52947 11.6363 7.69683 11.6363H8.30289C8.47025 11.6363 8.60592 11.5007 8.60592 11.3333C8.60592 11.1659 8.47025 11.0303 8.30289 11.0303Z" stroke="#4D5971" stroke-miterlimit="10" stroke-linecap="square"/>
<path d="M11.9394 8H11.3333C11.1659 8 11.0303 8.13567 11.0303 8.30303C11.0303 8.47039 11.1659 8.60606 11.3333 8.60606H11.9394C12.1067 8.60606 12.2424 8.47039 12.2424 8.30303C12.2424 8.13567 12.1067 8 11.9394 8Z" stroke="#4D5971" stroke-miterlimit="10" stroke-linecap="square"/>
<path d="M13.4545 2.54541H2.54537C1.87594 2.54541 1.33325 3.0881 1.33325 3.75753V12.8484C1.33325 13.5179 1.87594 14.0606 2.54537 14.0606H13.4545C14.1239 14.0606 14.6666 13.5179 14.6666 12.8484V3.75753C14.6666 3.0881 14.1239 2.54541 13.4545 2.54541Z" stroke="#4D5971" stroke-width="1.5" stroke-miterlimit="10" stroke-linecap="square"/>
<path d="M4.36353 1.93945V3.75764" stroke="#4D5971" stroke-width="1.5" stroke-miterlimit="10" stroke-linecap="round"/>
<path d="M11.6362 1.93945V3.75764" stroke="#4D5971" stroke-width="1.5" stroke-miterlimit="10" stroke-linecap="round"/>
<path d="M1.33325 5.57593H14.6666" stroke="#4D5971" stroke-width="1.5" stroke-miterlimit="10"/>
</svg>
