<svg width="48" height="48" viewBox="0 0 48 48" fill="none" xmlns="http://www.w3.org/2000/svg">
<rect x="7" y="3" width="34" height="42" rx="3" stroke="#00BAB5" stroke-width="2"/>
<rect x="17" y="33" width="14" height="6" rx="1" stroke="#00BAB5" stroke-width="2"/>
<mask id="path-3-inside-1_1053_3087" fill="white">
<rect x="14" y="10" width="4" height="6" rx="1"/>
</mask>
<rect x="14" y="10" width="4" height="6" rx="1" stroke="#00BAB5" stroke-width="4" mask="url(#path-3-inside-1_1053_3087)"/>
<mask id="path-4-inside-2_1053_3087" fill="white">
<rect x="14" y="20" width="4" height="6" rx="1"/>
</mask>
<rect x="14" y="20" width="4" height="6" rx="1" stroke="#00BAB5" stroke-width="4" mask="url(#path-4-inside-2_1053_3087)"/>
<mask id="path-5-inside-3_1053_3087" fill="white">
<rect x="22" y="10" width="4" height="6" rx="1"/>
</mask>
<rect x="22" y="10" width="4" height="6" rx="1" stroke="#00BAB5" stroke-width="4" mask="url(#path-5-inside-3_1053_3087)"/>
<mask id="path-6-inside-4_1053_3087" fill="white">
<rect x="22" y="20" width="4" height="6" rx="1"/>
</mask>
<rect x="22" y="20" width="4" height="6" rx="1" stroke="#00BAB5" stroke-width="4" mask="url(#path-6-inside-4_1053_3087)"/>
<mask id="path-7-inside-5_1053_3087" fill="white">
<rect x="30" y="10" width="4" height="6" rx="1"/>
</mask>
<rect x="30" y="10" width="4" height="6" rx="1" stroke="#00BAB5" stroke-width="4" mask="url(#path-7-inside-5_1053_3087)"/>
<mask id="path-8-inside-6_1053_3087" fill="white">
<rect x="30" y="20" width="4" height="6" rx="1"/>
</mask>
<rect x="30" y="20" width="4" height="6" rx="1" stroke="#00BAB5" stroke-width="4" mask="url(#path-8-inside-6_1053_3087)"/>
</svg>
