<svg width="20" height="20" viewBox="0 0 20 20" fill="none" xmlns="http://www.w3.org/2000/svg">
<path d="M10 18.3334C5.39765 18.3334 1.66669 14.6024 1.66669 10C1.66669 5.39765 5.39765 1.66669 10 1.66669C14.6024 1.66669 18.3334 5.39765 18.3334 10C18.3283 14.6003 14.6003 18.3283 10 18.3334ZM3.33335 10.1434C3.37278 13.8111 6.36761 16.758 10.0355 16.7384C13.7033 16.7185 16.6663 13.7396 16.6663 10.0717C16.6663 6.40378 13.7033 3.42483 10.0355 3.40502C6.36761 3.3854 3.37278 6.33232 3.33335 10V10.1434ZM10.8334 14.1667H9.16669V10.8334H5.83335V9.16669H9.16669V5.83335H10.8334V9.16669H14.1667V10.8334H10.8334V14.1667Z" fill="#3DB151"/>
</svg>
