<svg width="460" height="149" viewBox="0 0 460 149" fill="none" xmlns="http://www.w3.org/2000/svg">
<rect x="0.5" y="0.5" width="459" height="148" rx="7.5" fill="#4080FF" fill-opacity="0.05" stroke="#00BAB5" stroke-dasharray="6 8"/>
<path d="M246.535 44.035L239.465 36.965C238.528 36.0275 237.255 35.5 235.93 35.5H218C215.237 35.5 213 37.7375 213 40.5V75.5C213 78.2625 215.237 80.5 218 80.5H243C245.763 80.5 248 78.2625 248 75.5V47.57C248 46.245 247.472 44.9725 246.535 44.035V44.035Z" stroke="#00BAB5" stroke-width="2.5" stroke-linecap="round" stroke-linejoin="round"/>
<path d="M248 48H238C236.62 48 235.5 46.88 235.5 45.5V35.5" stroke="#00BAB5" stroke-width="2.5" stroke-linecap="round" stroke-linejoin="round"/>
<path d="M230.5 55.5V70.5" stroke="#00BAB5" stroke-width="2.5" stroke-linecap="round" stroke-linejoin="round"/>
<path d="M225.5 60.5L230.501 55.5L235.5 60.5" stroke="#00BAB5" stroke-width="2.5" stroke-linecap="round" stroke-linejoin="round"/>
<path d="M137.9 106.7L136.772 107.896V111H135.043V101.047H136.772V105.716L137.729 104.533L140.642 101.047H142.733L139.035 105.456L142.945 111H140.895L137.9 106.7ZM146.794 111.137C145.741 111.137 144.887 110.806 144.23 110.146C143.579 109.48 143.253 108.596 143.253 107.493V107.288C143.253 106.55 143.394 105.891 143.677 105.312C143.964 104.729 144.365 104.276 144.88 103.952C145.395 103.629 145.969 103.467 146.603 103.467C147.61 103.467 148.387 103.788 148.934 104.431C149.485 105.073 149.761 105.982 149.761 107.158V107.828H144.928C144.978 108.439 145.181 108.922 145.536 109.277C145.896 109.633 146.347 109.811 146.89 109.811C147.651 109.811 148.271 109.503 148.749 108.888L149.645 109.742C149.348 110.184 148.952 110.528 148.455 110.774C147.963 111.016 147.409 111.137 146.794 111.137ZM146.596 104.8C146.14 104.8 145.771 104.959 145.488 105.278C145.21 105.597 145.033 106.042 144.955 106.611H148.12V106.488C148.084 105.932 147.936 105.513 147.676 105.23C147.416 104.943 147.056 104.8 146.596 104.8ZM146.972 100.5H148.865L146.972 102.571H145.639L146.972 100.5ZM150.745 107.233C150.745 106.509 150.889 105.857 151.176 105.278C151.463 104.695 151.866 104.248 152.386 103.938C152.905 103.624 153.502 103.467 154.177 103.467C155.175 103.467 155.984 103.788 156.604 104.431C157.228 105.073 157.565 105.925 157.615 106.987L157.622 107.377C157.622 108.106 157.481 108.758 157.198 109.332C156.92 109.906 156.519 110.351 155.995 110.665C155.476 110.979 154.874 111.137 154.19 111.137C153.147 111.137 152.311 110.79 151.682 110.098C151.057 109.4 150.745 108.473 150.745 107.315V107.233ZM152.406 107.377C152.406 108.138 152.563 108.735 152.878 109.168C153.192 109.596 153.63 109.811 154.19 109.811C154.751 109.811 155.186 109.592 155.496 109.154C155.811 108.717 155.968 108.076 155.968 107.233C155.968 106.486 155.806 105.894 155.482 105.456C155.163 105.019 154.728 104.8 154.177 104.8C153.634 104.8 153.204 105.016 152.885 105.449C152.566 105.878 152.406 106.52 152.406 107.377ZM164.595 101.806V103.604H165.9V104.834H164.595V108.963C164.595 109.245 164.649 109.451 164.759 109.578C164.873 109.701 165.073 109.763 165.36 109.763C165.552 109.763 165.745 109.74 165.941 109.694V110.979C165.563 111.084 165.199 111.137 164.848 111.137C163.572 111.137 162.934 110.433 162.934 109.024V104.834H161.717V103.604H162.934V101.806H164.595ZM168.812 104.41C169.355 103.781 170.041 103.467 170.87 103.467C172.447 103.467 173.247 104.367 173.27 106.167V111H171.608V106.229C171.608 105.718 171.497 105.358 171.273 105.148C171.055 104.934 170.731 104.827 170.303 104.827C169.637 104.827 169.141 105.123 168.812 105.716V111H167.151V100.5H168.812V104.41ZM179.374 111C179.301 110.859 179.237 110.629 179.183 110.31C178.654 110.861 178.007 111.137 177.241 111.137C176.498 111.137 175.892 110.925 175.423 110.501C174.953 110.077 174.719 109.553 174.719 108.929C174.719 108.14 175.01 107.536 175.594 107.117C176.182 106.693 177.02 106.481 178.109 106.481H179.128V105.996C179.128 105.613 179.021 105.308 178.807 105.08C178.592 104.848 178.267 104.731 177.829 104.731C177.451 104.731 177.141 104.827 176.899 105.019C176.658 105.205 176.537 105.445 176.537 105.736H174.876C174.876 105.331 175.01 104.952 175.279 104.602C175.548 104.246 175.913 103.968 176.373 103.768C176.838 103.567 177.355 103.467 177.925 103.467C178.791 103.467 179.481 103.686 179.996 104.123C180.511 104.556 180.775 105.167 180.789 105.955V109.291C180.789 109.956 180.882 110.487 181.069 110.884V111H179.374ZM177.549 109.804C177.877 109.804 178.185 109.724 178.472 109.564C178.763 109.405 178.982 109.191 179.128 108.922V107.527H178.232C177.617 107.527 177.155 107.634 176.845 107.849C176.535 108.063 176.38 108.366 176.38 108.758C176.38 109.077 176.485 109.332 176.694 109.523C176.909 109.71 177.193 109.804 177.549 109.804ZM177.385 102.387L177.337 101.389C177.67 101.366 177.909 101.323 178.055 101.259C178.205 101.195 178.28 101.083 178.28 100.924C178.28 100.596 177.938 100.432 177.255 100.432L177.303 99.5908C178.073 99.5908 178.652 99.7093 179.039 99.9463C179.431 100.183 179.627 100.502 179.627 100.903C179.627 101.177 179.538 101.402 179.36 101.58C179.183 101.758 178.93 101.869 178.602 101.915V102.387H177.385ZM187.652 104.41C188.195 103.781 188.881 103.467 189.71 103.467C191.287 103.467 192.087 104.367 192.109 106.167V111H190.448V106.229C190.448 105.718 190.337 105.358 190.113 105.148C189.895 104.934 189.571 104.827 189.143 104.827C188.477 104.827 187.98 105.123 187.652 105.716V111H185.991V100.5H187.652V104.41ZM193.483 107.233C193.483 106.509 193.627 105.857 193.914 105.278C194.201 104.695 194.604 104.248 195.124 103.938C195.644 103.624 196.241 103.467 196.915 103.467C197.913 103.467 198.722 103.788 199.342 104.431C199.966 105.073 200.303 105.925 200.354 106.987L200.36 107.377C200.36 108.106 200.219 108.758 199.937 109.332C199.659 109.906 199.257 110.351 198.733 110.665C198.214 110.979 197.612 111.137 196.929 111.137C195.885 111.137 195.049 110.79 194.42 110.098C193.796 109.4 193.483 108.473 193.483 107.315V107.233ZM195.145 107.377C195.145 108.138 195.302 108.735 195.616 109.168C195.931 109.596 196.368 109.811 196.929 109.811C197.489 109.811 197.924 109.592 198.234 109.154C198.549 108.717 198.706 108.076 198.706 107.233C198.706 106.486 198.544 105.894 198.221 105.456C197.902 105.019 197.466 104.8 196.915 104.8C196.373 104.8 195.942 105.016 195.623 105.449C195.304 105.878 195.145 106.52 195.145 107.377ZM206.185 111C206.112 110.859 206.048 110.629 205.993 110.31C205.465 110.861 204.817 111.137 204.052 111.137C203.309 111.137 202.703 110.925 202.233 110.501C201.764 110.077 201.529 109.553 201.529 108.929C201.529 108.14 201.821 107.536 202.404 107.117C202.992 106.693 203.831 106.481 204.92 106.481H205.938V105.996C205.938 105.613 205.831 105.308 205.617 105.08C205.403 104.848 205.077 104.731 204.64 104.731C204.261 104.731 203.951 104.827 203.71 105.019C203.468 105.205 203.348 105.445 203.348 105.736H201.687C201.687 105.331 201.821 104.952 202.09 104.602C202.359 104.246 202.723 103.968 203.184 103.768C203.648 103.567 204.166 103.467 204.735 103.467C205.601 103.467 206.292 103.686 206.807 104.123C207.322 104.556 207.586 105.167 207.6 105.955V109.291C207.6 109.956 207.693 110.487 207.88 110.884V111H206.185ZM204.359 109.804C204.688 109.804 204.995 109.724 205.282 109.564C205.574 109.405 205.793 109.191 205.938 108.922V107.527H205.043C204.428 107.527 203.965 107.634 203.655 107.849C203.345 108.063 203.19 108.366 203.19 108.758C203.19 109.077 203.295 109.332 203.505 109.523C203.719 109.71 204.004 109.804 204.359 109.804ZM207.005 100.678C207.005 101.252 206.804 101.717 206.403 102.072C206.002 102.428 205.467 102.605 204.797 102.605C204.127 102.605 203.591 102.428 203.19 102.072C202.789 101.717 202.589 101.252 202.589 100.678H203.833C203.833 100.979 203.917 101.213 204.086 101.382C204.259 101.546 204.496 101.628 204.797 101.628C205.098 101.628 205.332 101.546 205.501 101.382C205.67 101.213 205.754 100.979 205.754 100.678H207.005ZM203.293 112.6C203.293 112.358 203.373 112.155 203.532 111.991C203.696 111.832 203.929 111.752 204.229 111.752C204.53 111.752 204.763 111.832 204.927 111.991C205.091 112.155 205.173 112.358 205.173 112.6C205.173 112.841 205.091 113.042 204.927 113.201C204.763 113.361 204.53 113.44 204.229 113.44C203.929 113.44 203.696 113.361 203.532 113.201C203.373 113.042 203.293 112.841 203.293 112.6ZM212.378 109.811C212.793 109.811 213.137 109.69 213.41 109.448C213.684 109.207 213.829 108.908 213.848 108.553H215.413C215.395 109.013 215.251 109.444 214.982 109.845C214.714 110.241 214.349 110.556 213.889 110.788C213.428 111.021 212.932 111.137 212.398 111.137C211.364 111.137 210.544 110.802 209.938 110.132C209.331 109.462 209.028 108.537 209.028 107.356V107.186C209.028 106.06 209.329 105.16 209.931 104.485C210.532 103.806 211.353 103.467 212.392 103.467C213.271 103.467 213.987 103.724 214.538 104.239C215.094 104.75 215.386 105.422 215.413 106.256H213.848C213.829 105.832 213.684 105.483 213.41 105.21C213.141 104.937 212.797 104.8 212.378 104.8C211.84 104.8 211.425 104.996 211.134 105.388C210.842 105.775 210.694 106.365 210.689 107.158V107.425C210.689 108.227 210.833 108.826 211.12 109.223C211.412 109.615 211.831 109.811 212.378 109.811ZM221.695 103.604L221.743 104.458C222.29 103.797 223.008 103.467 223.896 103.467C225.437 103.467 226.221 104.349 226.248 106.112V111H224.587V106.208C224.587 105.739 224.484 105.392 224.279 105.169C224.079 104.941 223.748 104.827 223.288 104.827C222.618 104.827 222.119 105.13 221.791 105.736V111H220.13V103.604H221.695ZM229.584 104.41C230.126 103.781 230.812 103.467 231.642 103.467C233.218 103.467 234.018 104.367 234.041 106.167V111H232.38V106.229C232.38 105.718 232.268 105.358 232.045 105.148C231.826 104.934 231.503 104.827 231.074 104.827C230.409 104.827 229.912 105.123 229.584 105.716V111H227.923V100.5H229.584V104.41ZM240.146 111C240.073 110.859 240.009 110.629 239.954 110.31C239.425 110.861 238.778 111.137 238.013 111.137C237.27 111.137 236.664 110.925 236.194 110.501C235.725 110.077 235.49 109.553 235.49 108.929C235.49 108.14 235.782 107.536 236.365 107.117C236.953 106.693 237.792 106.481 238.881 106.481H239.899V105.996C239.899 105.613 239.792 105.308 239.578 105.08C239.364 104.848 239.038 104.731 238.601 104.731C238.222 104.731 237.912 104.827 237.671 105.019C237.429 105.205 237.309 105.445 237.309 105.736H235.647C235.647 105.331 235.782 104.952 236.051 104.602C236.32 104.246 236.684 103.968 237.145 103.768C237.609 103.567 238.127 103.467 238.696 103.467C239.562 103.467 240.253 103.686 240.768 104.123C241.283 104.556 241.547 105.167 241.561 105.955V109.291C241.561 109.956 241.654 110.487 241.841 110.884V111H240.146ZM238.32 109.804C238.648 109.804 238.956 109.724 239.243 109.564C239.535 109.405 239.754 109.191 239.899 108.922V107.527H239.004C238.389 107.527 237.926 107.634 237.616 107.849C237.306 108.063 237.151 108.366 237.151 108.758C237.151 109.077 237.256 109.332 237.466 109.523C237.68 109.71 237.965 109.804 238.32 109.804ZM238.197 100.849H239.298L241.287 102.558H239.838L238.751 101.587L237.664 102.558H236.208L238.197 100.849ZM241.807 99.6523H243.324L241.848 101.478H240.774L241.807 99.6523ZM244.842 103.604L244.89 104.458C245.437 103.797 246.154 103.467 247.043 103.467C248.583 103.467 249.367 104.349 249.395 106.112V111H247.733V106.208C247.733 105.739 247.631 105.392 247.426 105.169C247.225 104.941 246.895 104.827 246.435 104.827C245.765 104.827 245.266 105.13 244.938 105.736V111H243.276V103.604H244.842ZM261.945 102.633H260.749V111H259.245L259.163 110.234C258.666 110.836 258.003 111.137 257.174 111.137C256.308 111.137 255.606 110.788 255.068 110.091C254.535 109.394 254.269 108.446 254.269 107.247C254.269 106.108 254.533 105.194 255.062 104.506C255.59 103.813 256.299 103.467 257.188 103.467C257.971 103.467 258.605 103.74 259.088 104.287V102.633H257.372V101.471H259.088V100.5H260.749V101.471H261.945V102.633ZM255.93 107.391C255.93 108.143 256.073 108.73 256.36 109.154C256.652 109.574 257.064 109.783 257.598 109.783C258.277 109.783 258.773 109.48 259.088 108.874V105.716C258.783 105.123 258.29 104.827 257.611 104.827C257.074 104.827 256.659 105.041 256.367 105.47C256.076 105.894 255.93 106.534 255.93 107.391ZM266.464 111.137C265.411 111.137 264.557 110.806 263.9 110.146C263.249 109.48 262.923 108.596 262.923 107.493V107.288C262.923 106.55 263.064 105.891 263.347 105.312C263.634 104.729 264.035 104.276 264.55 103.952C265.065 103.629 265.639 103.467 266.272 103.467C267.28 103.467 268.057 103.788 268.604 104.431C269.155 105.073 269.431 105.982 269.431 107.158V107.828H264.598C264.648 108.439 264.851 108.922 265.206 109.277C265.566 109.633 266.017 109.811 266.56 109.811C267.321 109.811 267.94 109.503 268.419 108.888L269.314 109.742C269.018 110.184 268.622 110.528 268.125 110.774C267.633 111.016 267.079 111.137 266.464 111.137ZM266.266 104.8C265.81 104.8 265.441 104.959 265.158 105.278C264.88 105.597 264.702 106.042 264.625 106.611H267.79V106.488C267.754 105.932 267.605 105.513 267.346 105.23C267.086 104.943 266.726 104.8 266.266 104.8ZM268.679 102.653H267.359L266.136 101.546L264.919 102.653H263.6L265.5 100.944H266.778L268.679 102.653ZM268.043 101.737L267.995 100.883C268.282 100.86 268.49 100.821 268.617 100.767C268.745 100.712 268.809 100.618 268.809 100.486C268.809 100.204 268.515 100.062 267.927 100.062L267.975 99.3447C268.599 99.3447 269.071 99.4473 269.39 99.6523C269.709 99.8529 269.868 100.124 269.868 100.466C269.868 100.716 269.784 100.917 269.615 101.067C269.451 101.213 269.242 101.302 268.986 101.334L268.979 101.737H268.043ZM277.251 109.811C277.666 109.811 278.01 109.69 278.283 109.448C278.557 109.207 278.702 108.908 278.721 108.553H280.286C280.268 109.013 280.124 109.444 279.855 109.845C279.587 110.241 279.222 110.556 278.762 110.788C278.301 111.021 277.805 111.137 277.271 111.137C276.237 111.137 275.417 110.802 274.811 110.132C274.204 109.462 273.901 108.537 273.901 107.356V107.186C273.901 106.06 274.202 105.16 274.804 104.485C275.405 103.806 276.226 103.467 277.265 103.467C278.144 103.467 278.86 103.724 279.411 104.239C279.967 104.75 280.259 105.422 280.286 106.256H278.721C278.702 105.832 278.557 105.483 278.283 105.21C278.014 104.937 277.67 104.8 277.251 104.8C276.713 104.8 276.299 104.996 276.007 105.388C275.715 105.775 275.567 106.365 275.562 107.158V107.425C275.562 108.227 275.706 108.826 275.993 109.223C276.285 109.615 276.704 109.811 277.251 109.811ZM283.178 104.41C283.72 103.781 284.406 103.467 285.235 103.467C286.812 103.467 287.612 104.367 287.635 106.167V111H285.974V106.229C285.974 105.718 285.862 105.358 285.639 105.148C285.42 104.934 285.096 104.827 284.668 104.827C284.003 104.827 283.506 105.123 283.178 105.716V111H281.517V100.5H283.178V104.41ZM289.009 107.233C289.009 106.509 289.152 105.857 289.439 105.278C289.727 104.695 290.13 104.248 290.649 103.938C291.169 103.624 291.766 103.467 292.44 103.467C293.438 103.467 294.247 103.788 294.867 104.431C295.492 105.073 295.829 105.925 295.879 106.987L295.886 107.377C295.886 108.106 295.744 108.758 295.462 109.332C295.184 109.906 294.783 110.351 294.259 110.665C293.739 110.979 293.138 111.137 292.454 111.137C291.41 111.137 290.574 110.79 289.945 110.098C289.321 109.4 289.009 108.473 289.009 107.315V107.233ZM290.67 107.377C290.67 108.138 290.827 108.735 291.142 109.168C291.456 109.596 291.894 109.811 292.454 109.811C293.015 109.811 293.45 109.592 293.76 109.154C294.074 108.717 294.231 108.076 294.231 107.233C294.231 106.486 294.07 105.894 293.746 105.456C293.427 105.019 292.992 104.8 292.44 104.8C291.898 104.8 291.467 105.016 291.148 105.449C290.829 105.878 290.67 106.52 290.67 107.377ZM291.483 112.661C291.483 112.42 291.563 112.217 291.723 112.053C291.887 111.893 292.119 111.813 292.42 111.813C292.721 111.813 292.953 111.893 293.117 112.053C293.281 112.217 293.363 112.42 293.363 112.661C293.363 112.903 293.281 113.103 293.117 113.263C292.953 113.422 292.721 113.502 292.42 113.502C292.119 113.502 291.887 113.422 291.723 113.263C291.563 113.103 291.483 112.903 291.483 112.661ZM298.832 103.604L298.88 104.458C299.427 103.797 300.145 103.467 301.033 103.467C302.574 103.467 303.357 104.349 303.385 106.112V111H301.724V106.208C301.724 105.739 301.621 105.392 301.416 105.169C301.215 104.941 300.885 104.827 300.425 104.827C299.755 104.827 299.256 105.13 298.928 105.736V111H297.267V103.604H298.832ZM309.011 111V104.834H307.883V103.604H309.011V103.098C309.015 102.519 309.138 102.022 309.38 101.607C309.621 101.193 309.963 100.881 310.405 100.671C310.847 100.461 311.378 100.356 311.998 100.356C312.363 100.356 312.711 100.395 313.044 100.473C313.381 100.55 313.73 100.648 314.09 100.767L313.837 102.141C313.208 101.922 312.634 101.812 312.114 101.812C311.608 101.812 311.242 101.924 311.014 102.147C310.786 102.366 310.672 102.697 310.672 103.139V103.604H312.128V104.834H310.672V111H309.011ZM314.876 111H313.215V103.604H314.876V111ZM318.485 111H316.824V100.5H318.485V111ZM323.558 111.137C322.505 111.137 321.65 110.806 320.994 110.146C320.342 109.48 320.017 108.596 320.017 107.493V107.288C320.017 106.55 320.158 105.891 320.44 105.312C320.728 104.729 321.129 104.276 321.644 103.952C322.159 103.629 322.733 103.467 323.366 103.467C324.373 103.467 325.15 103.788 325.697 104.431C326.249 105.073 326.524 105.982 326.524 107.158V107.828H321.691C321.742 108.439 321.944 108.922 322.3 109.277C322.66 109.633 323.111 109.811 323.653 109.811C324.414 109.811 325.034 109.503 325.513 108.888L326.408 109.742C326.112 110.184 325.715 110.528 325.219 110.774C324.727 111.016 324.173 111.137 323.558 111.137ZM323.359 104.8C322.904 104.8 322.535 104.959 322.252 105.278C321.974 105.597 321.796 106.042 321.719 106.611H324.884V106.488C324.847 105.932 324.699 105.513 324.439 105.23C324.18 104.943 323.82 104.8 323.359 104.8Z" fill="#00BAB5"/>
</svg>
