<svg width="250" height="227" viewBox="0 0 250 227" fill="none" xmlns="http://www.w3.org/2000/svg">
    <g opacity="0.5">
        <path d="M125 188C178.541 188 221.945 185.476 221.945 182.364C221.945 179.251 178.541 176.727 125 176.727C71.4588 176.727 28.055 179.251 28.055 182.364C28.055 185.476 71.4588 188 125 188Z" fill="#F5F5F5" />
        <path d="M200.58 28.7449L187.255 15.4753H176.875L188.395 26.9474H185.225V41.661H197.41V28.7449H200.58Z" fill="#00BAB5" />
        <path opacity="0.4" d="M200.58 28.7449L187.255 15.4753H176.875L188.395 26.9474H185.225V41.661H197.41V28.7449H200.58Z" fill="white" />
        <path d="M190.2 28.7449L176.875 15.4753L163.55 28.7449H168.525V41.661H185.225V28.7449H190.2Z" fill="#00BAB5" />
        <path opacity="0.7" d="M190.2 28.7449L176.875 15.4753L163.55 28.7449H168.525V41.661H185.225V28.7449H190.2Z" fill="white" />
        <path d="M209.16 81.7137L195.835 68.4391H185.455L196.975 79.9112H193.805V94.6247H205.99V81.7137H209.16Z" fill="#00BAB5" />
        <path opacity="0.4" d="M209.16 81.7137L195.835 68.4391H185.455L196.975 79.9112H193.805V94.6247H205.99V81.7137H209.16Z" fill="white" />
        <path d="M198.78 81.7137L185.455 68.4391L172.13 81.7137H177.1V94.6247H193.805V81.7137H198.78Z" fill="#00BAB5" />
        <path opacity="0.7" d="M198.78 81.7137L185.455 68.4391L172.13 81.7137H177.1V94.6247H193.805V81.7137H198.78Z" fill="white" />
        <path d="M149.19 95.5112L135.86 82.2416H125.485L137.005 93.7087H133.835V108.427H146.02V95.5112H149.19Z" fill="#00BAB5" />
        <path opacity="0.4" d="M149.19 95.5112L135.86 82.2416H125.485L137.005 93.7087H133.835V108.427H146.02V95.5112H149.19Z" fill="white" />
        <path d="M138.81 95.5112L125.485 82.2416L112.16 95.5112H117.13V108.422H133.835V95.5112H138.81Z" fill="#00BAB5" />
        <path opacity="0.7" d="M138.81 95.5112L125.485 82.2416L112.16 95.5112H117.13V108.422H133.835V95.5112H138.81Z" fill="white" />
        <path d="M148.395 50.9223H141.225L140.2 49.9066L131.875 34.471L148.395 50.9223Z" fill="#2F54C6" />
        <path d="M141.2 65.9147H156.305V47.6709H141.2V65.9147Z" fill="#00BAB5" />
        <path opacity="0.3" d="M141.2 65.9147H156.305V47.6709H141.2V65.9147Z" fill="black" />
        <path d="M147.37 49.9066H160.24L143.715 33.4503H130.85L147.37 49.9066Z" fill="#00BAB5" />
        <path opacity="0.3" d="M147.37 49.9066H160.24L143.715 33.4503H130.85L147.37 49.9066Z" fill="black" />
        <path d="M141.2 45.2908V65.9147H120.495V45.2908L130.85 35.2776L130.955 35.3822L131.875 36.2685L141.2 45.2908Z" fill="#00BAB5" />
        <path opacity="0.3" d="M131.875 34.471V41.6112L122.52 50.9223H120.495V45.8037L130.955 35.3822L131.875 34.471Z" fill="black" />
        <path d="M147.37 49.9066H140.2L130.85 40.5905V33.4503L147.37 49.9066Z" fill="#00BAB5" />
        <path d="M114.325 49.9066H121.495L130.85 40.5905V33.4503L114.325 49.9066Z" fill="#00BAB5" />
        <path d="M112 70.8989C107.735 74.3445 103.335 77.586 98.91 80.7727C94.485 83.9594 90 87.0564 85.5 90.1286C81 93.2008 76.425 96.1584 71.83 99.0912C69.545 100.585 67.225 101.999 64.92 103.453C63.7831 104.233 62.5268 104.825 61.2 105.206C60.4807 105.399 59.7436 105.519 59 105.564C58.1644 105.633 57.3233 105.588 56.5 105.43C55.8554 105.299 55.2431 105.043 54.698 104.676C54.153 104.31 53.6859 103.84 53.3236 103.293C52.9613 102.746 52.7109 102.134 52.5868 101.49C52.4626 100.847 52.4671 100.186 52.6 99.5443C52.6 99.4696 52.635 99.375 52.655 99.2953C52.8794 98.4891 53.216 97.7181 53.655 97.0049C54.0244 96.3698 54.4583 95.7741 54.95 95.2273C55.8762 94.2073 56.9619 93.343 58.165 92.668C60.49 91.2439 62.795 89.795 65.13 88.4008C69.785 85.5676 74.485 82.8141 79.21 80.0955C83.935 77.3768 88.71 74.7428 93.525 72.1736C98.34 69.6043 103.195 67.0998 108.175 64.7894C108.978 64.4424 109.88 64.3943 110.716 64.6538C111.553 64.9132 112.267 65.463 112.731 66.2031C113.194 66.9431 113.375 67.8243 113.241 68.6861C113.107 69.5479 112.667 70.3332 112 70.8989Z" fill="#00BAB5" />
        <path d="M112 70.8989C107.735 74.3445 103.335 77.586 98.91 80.7727C94.485 83.9594 90 87.0564 85.5 90.1286C81 93.2008 76.425 96.1584 71.83 99.0912C69.545 100.585 67.225 101.999 64.92 103.453C63.7831 104.233 62.5268 104.825 61.2 105.206C60.4807 105.399 59.7436 105.519 59 105.564C58.1644 105.633 57.3233 105.588 56.5 105.43C55.8554 105.299 55.2431 105.043 54.698 104.676C54.153 104.31 53.6859 103.84 53.3236 103.293C52.9613 102.746 52.7109 102.134 52.5868 101.49C52.4626 100.847 52.4671 100.186 52.6 99.5443C52.6 99.4696 52.635 99.375 52.655 99.2953C52.8794 98.4891 53.216 97.7181 53.655 97.0049C54.0244 96.3698 54.4583 95.7741 54.95 95.2273C55.8762 94.2073 56.9619 93.343 58.165 92.668C60.49 91.2439 62.795 89.795 65.13 88.4008C69.785 85.5676 74.485 82.8141 79.21 80.0955C83.935 77.3768 88.71 74.7428 93.525 72.1736C98.34 69.6043 103.195 67.0998 108.175 64.7894C108.978 64.4424 109.88 64.3943 110.716 64.6538C111.553 64.9132 112.267 65.463 112.731 66.2031C113.194 66.9431 113.375 67.8243 113.241 68.6861C113.107 69.5479 112.667 70.3332 112 70.8989Z" fill="#00BAB5" />
        <path opacity="0.5" d="M112 70.8989C107.735 74.3445 103.335 77.586 98.91 80.7727C94.485 83.9594 90 87.0564 85.5 90.1286C81 93.2008 76.425 96.1584 71.83 99.0912C69.545 100.585 67.225 101.999 64.92 103.453C63.7831 104.233 62.5268 104.825 61.2 105.206C60.4807 105.399 59.7436 105.519 59 105.564C58.1644 105.633 57.3233 105.588 56.5 105.43C55.8554 105.299 55.2431 105.043 54.698 104.676C54.153 104.31 53.6859 103.84 53.3236 103.293C52.9613 102.746 52.7109 102.134 52.5868 101.49C52.4626 100.847 52.4671 100.186 52.6 99.5443C52.6 99.4696 52.635 99.375 52.655 99.2953C52.8794 98.4891 53.216 97.7181 53.655 97.0049C54.0244 96.3698 54.4583 95.7741 54.95 95.2273C55.8762 94.2073 56.9619 93.343 58.165 92.668C60.49 91.2439 62.795 89.795 65.13 88.4008C69.785 85.5676 74.485 82.8141 79.21 80.0955C83.935 77.3768 88.71 74.7428 93.525 72.1736C98.34 69.6043 103.195 67.0998 108.175 64.7894C108.978 64.4424 109.88 64.3943 110.716 64.6538C111.553 64.9132 112.267 65.463 112.731 66.2031C113.194 66.9431 113.375 67.8243 113.241 68.6861C113.107 69.5479 112.667 70.3332 112 70.8989Z" fill="white" />
        <path d="M93.55 178.076L97.63 177.135L95.72 167.66L91.64 168.601L93.55 178.076Z" fill="#EBB376" />
        <path d="M66.04 64.8493C65.475 66.8409 64.93 68.9372 64.41 70.9886C63.89 73.0401 63.41 75.1214 63.01 77.1927C62.79 78.2234 62.6 79.279 62.435 80.2499C62.27 81.2209 62.175 82.2416 62.115 83.2624C62.0625 84.2775 62.0625 85.2946 62.115 86.3096C62.115 86.8076 62.18 87.3055 62.23 87.8333C62.28 88.3611 62.37 88.864 62.44 89.2972L60.44 90.049C60.1776 89.5139 59.952 88.9616 59.765 88.3959C59.5694 87.8523 59.4025 87.2989 59.265 86.7379C58.9914 85.6185 58.8042 84.4799 58.705 83.3321C58.6124 82.1726 58.5957 81.0083 58.655 79.8466C58.735 78.6715 58.875 77.591 59.03 76.4956C59.345 74.3097 59.75 72.1438 60.23 70.0226C60.71 67.9015 61.23 65.7654 61.905 63.6194L66.04 64.8493Z" fill="#EBB376" />
        <path d="M60.155 65.5364L64.36 68.8724L66.885 70.8641C66.885 70.8641 67.15 70.162 67.47 69.1562C68.08 67.2144 68.875 64.1372 68.325 62.7231C67.46 60.4825 65.825 58.4609 63.755 58.909C62 59.3024 60.155 65.5364 60.155 65.5364Z" fill="#263238" />
        <path d="M65.965 178.106H70.15L69.825 168.447H65.635L65.965 178.106Z" fill="#EBB376" />
        <path d="M95.72 167.665L96.745 172.739L92.625 173.486L91.635 168.606L95.72 167.665Z" fill="#DA9D62" />
        <path d="M65.635 168.447H69.825L69.99 173.426H65.8L65.635 168.447Z" fill="#DA9D62" />
        <path d="M79.285 84.2133C79.285 84.2133 76.855 112.839 74.335 128.971C72.3 142.002 70.69 172.465 70.69 172.465H65C65 172.465 62.28 143.048 63.315 130.142C65.93 97.5327 61.315 91.7568 66.79 84.1984L79.285 84.2133Z" fill="#00BAB5" />
        <path opacity="0.6" d="M79.285 84.2133C79.285 84.2133 76.855 112.839 74.335 128.971C72.3 142.002 70.69 172.465 70.69 172.465H65C65 172.465 62.28 143.048 63.315 130.142C65.93 97.5327 61.315 91.7568 66.79 84.1984L79.285 84.2133Z" fill="black" />
        <path d="M60.715 89.7253L58.245 91.3983L58.595 92.8274C58.595 92.8274 63.74 90.1685 62.365 89.1029L60.715 89.7253Z" fill="#EBB376" />
        <path d="M71.915 178.35C71.5423 178.341 71.1717 178.291 70.81 178.201C70.7916 178.195 70.775 178.185 70.7618 178.171C70.7487 178.157 70.7394 178.14 70.735 178.121C70.7319 178.102 70.7346 178.082 70.7426 178.065C70.7506 178.047 70.7636 178.032 70.78 178.022C70.925 177.927 72.19 177.11 72.68 177.33C72.7355 177.354 72.7835 177.392 72.8187 177.441C72.8539 177.49 72.8751 177.548 72.88 177.608C72.8995 177.702 72.8946 177.8 72.8657 177.891C72.8369 177.983 72.785 178.065 72.715 178.131C72.4834 178.297 72.1994 178.375 71.915 178.35ZM71.09 178.056C71.82 178.206 72.37 178.176 72.59 177.987C72.6359 177.941 72.6696 177.885 72.688 177.823C72.7063 177.762 72.7087 177.696 72.695 177.633C72.6932 177.607 72.6843 177.581 72.6694 177.56C72.6545 177.538 72.634 177.52 72.61 177.509C72.345 177.394 71.61 177.763 71.09 178.056Z" fill="#00BAB5" />
        <path d="M70.835 178.201C70.8188 178.206 70.8012 178.206 70.785 178.201C70.7703 178.192 70.7581 178.18 70.7494 178.165C70.7407 178.15 70.7357 178.133 70.735 178.116C70.735 178.061 70.735 176.862 71.195 176.458C71.2505 176.406 71.3172 176.367 71.3899 176.345C71.4627 176.323 71.5397 176.317 71.615 176.329C71.6939 176.329 71.7701 176.357 71.8311 176.407C71.892 176.457 71.934 176.526 71.95 176.603C72.045 177.101 71.28 177.977 70.885 178.201C70.8687 178.206 70.8513 178.206 70.835 178.201ZM71.545 176.513C71.464 176.515 71.3863 176.545 71.325 176.598C71.0627 176.985 70.9281 177.445 70.94 177.912C71.335 177.593 71.815 176.916 71.755 176.632C71.755 176.588 71.72 176.528 71.59 176.513H71.545Z" fill="#00BAB5" />
        <path d="M98 176.508C97.9814 176.507 97.9633 176.501 97.9478 176.491C97.9322 176.48 97.9197 176.466 97.9116 176.449C97.9034 176.432 97.8999 176.414 97.9014 176.395C97.9029 176.377 97.9093 176.359 97.92 176.344C98.055 176.184 99.22 174.82 99.815 174.82H99.855C99.9093 174.824 99.9615 174.842 100.006 174.873C100.051 174.903 100.087 174.945 100.11 174.994C100.15 175.071 100.171 175.157 100.171 175.243C100.171 175.33 100.15 175.415 100.11 175.492C99.85 176.04 98.675 176.349 97.995 176.488L98 176.508ZM99.81 175.014C99.485 175.014 98.765 175.691 98.27 176.244C99.185 176.03 99.805 175.746 99.95 175.422C99.9794 175.372 99.9949 175.314 99.9949 175.256C99.9949 175.197 99.9794 175.14 99.95 175.089C99.9414 175.069 99.9276 175.051 99.9101 175.038C99.8925 175.025 99.8718 175.017 99.85 175.014H99.81Z" fill="#00BAB5" />
        <path d="M98 176.508C97.9832 176.505 97.9675 176.498 97.955 176.486C97.9425 176.475 97.9338 176.46 97.93 176.443C97.93 176.398 97.57 175.323 97.89 174.72C97.934 174.632 97.9958 174.554 98.0715 174.491C98.1472 174.427 98.2352 174.38 98.33 174.352C98.595 174.272 98.725 174.352 98.78 174.467C99.035 174.875 98.47 176.08 98.095 176.458C98.0851 176.474 98.0711 176.487 98.0544 176.496C98.0377 176.505 98.0189 176.509 98 176.508ZM98.5 174.516C98.4619 174.51 98.4231 174.51 98.385 174.516C98.3151 174.536 98.2501 174.57 98.1941 174.617C98.1382 174.663 98.0925 174.72 98.06 174.785C97.9149 175.239 97.9149 175.726 98.06 176.179C98.415 175.681 98.76 174.79 98.61 174.546C98.5935 174.526 98.5707 174.512 98.5452 174.507C98.5198 174.501 98.4933 174.505 98.47 174.516H98.5Z" fill="#00BAB5" />
        <path d="M71.2 48.836C71.7 51.3256 72.7 56.3048 70.975 57.9728C70.975 57.9728 71.655 60.4624 76.275 60.4624C81.35 60.4624 78.7 57.9728 78.7 57.9728C75.93 57.3156 76 55.2691 76.485 53.3422L71.2 48.836Z" fill="#EBB376" />
        <path d="M81.29 43.5283C81.2489 43.529 81.2087 43.5168 81.175 43.4934C81.1536 43.4781 81.1355 43.4587 81.1216 43.4364C81.1077 43.414 81.0985 43.3892 81.0943 43.3633C81.0901 43.3374 81.0911 43.3109 81.0972 43.2854C81.1034 43.2599 81.1145 43.2358 81.13 43.2146C81.3105 42.9587 81.5489 42.7487 81.826 42.6017C82.1031 42.4546 82.4111 42.3746 82.725 42.3681C82.772 42.3756 82.8148 42.3995 82.8456 42.4355C82.8765 42.4716 82.8935 42.5174 82.8935 42.5648C82.8935 42.6122 82.8765 42.658 82.8456 42.694C82.8148 42.7301 82.772 42.754 82.725 42.7615C82.4753 42.7683 82.2308 42.8342 82.0117 42.9536C81.7927 43.0731 81.6053 43.2428 81.465 43.4486C81.4452 43.4758 81.4187 43.4975 81.388 43.5114C81.3574 43.5254 81.3236 43.5312 81.29 43.5283Z" fill="#263238" />
        <path d="M82.4 45.9033C82.6696 46.6833 83.0465 47.4223 83.52 48.0992C83.3422 48.214 83.1415 48.289 82.9317 48.3191C82.722 48.3492 82.5081 48.3336 82.305 48.2734L82.4 45.9033Z" fill="#DE5753" />
        <path d="M82.12 45.3158C82.12 45.6544 82.275 45.9332 82.495 45.9382C82.715 45.9432 82.905 45.6843 82.92 45.3457C82.935 45.0071 82.765 44.7332 82.545 44.7233C82.325 44.7133 82.135 44.9822 82.12 45.3158Z" fill="#263238" />
        <path d="M82.445 44.7382L83.265 44.539C83.265 44.539 82.825 45.1514 82.445 44.7382Z" fill="#263238" />
        <path d="M70.5 177.623H65.795C65.7136 177.62 65.634 177.648 65.572 177.7C65.5099 177.753 65.47 177.827 65.46 177.907L64.925 181.612C64.9136 181.705 64.9224 181.801 64.951 181.891C64.9796 181.981 65.0272 182.064 65.0907 182.134C65.1542 182.204 65.232 182.26 65.319 182.298C65.406 182.336 65.5001 182.355 65.595 182.354C67.235 182.329 68.025 182.229 70.095 182.229C71.37 182.229 73.225 182.363 74.985 182.363C76.745 182.363 76.835 180.631 76.105 180.476C72.825 179.769 72.305 178.803 71.2 177.877C71.0032 177.714 70.7558 177.625 70.5 177.623Z" fill="#263238" />
        <path d="M97.55 176.065L93.205 177.862C93.1297 177.891 93.0678 177.947 93.0309 178.019C92.994 178.09 92.9848 178.173 93.005 178.251L93.935 181.881C93.9614 181.971 94.0068 182.055 94.0681 182.127C94.1294 182.199 94.2054 182.257 94.2909 182.297C94.3764 182.338 94.4695 182.36 94.5642 182.362C94.6588 182.364 94.7528 182.346 94.84 182.309C96.34 181.656 97.04 181.268 98.95 180.476C100.125 179.978 102.61 179.107 104.235 178.435C105.86 177.763 105.275 176.13 104.54 176.264C101.24 176.871 99.67 176.468 98.295 176.035C98.0509 175.957 97.7871 175.968 97.55 176.065Z" fill="#263238" />
        <path d="M88.09 63.1363C88.905 65.0483 89.785 67.0051 90.675 68.9072C91.125 69.8632 91.5933 70.8026 92.08 71.7254C92.58 72.6516 93.08 73.5578 93.58 74.4242C93.845 74.8524 94.11 75.2806 94.385 75.6739L94.795 76.2416C94.8791 76.36 94.9745 76.4701 95.08 76.5702C95.6253 77.042 96.3057 77.3311 97.025 77.3967C98.73 77.6407 100.87 77.2972 102.785 76.7843L103.675 78.7013C103.169 79.004 102.645 79.275 102.105 79.5129C101.574 79.7591 101.028 79.972 100.47 80.1503C99.2941 80.5489 98.0621 80.759 96.82 80.7727C96.1274 80.7788 95.4374 80.6883 94.77 80.5038C94.0292 80.3007 93.3325 79.9631 92.715 79.5079C92.3988 79.2685 92.1059 79.0001 91.84 78.7063C91.615 78.4523 91.45 78.2382 91.25 77.9992C90.875 77.5312 90.54 77.0582 90.205 76.5851C88.9591 74.718 87.8367 72.772 86.845 70.7595C85.845 68.7678 84.945 66.7761 84.115 64.7147L88.09 63.1363Z" fill="#EBB376" />
        <path d="M102.355 78.9354L106.925 78.2184L105.71 75.6392C105.71 75.6392 102.17 76.2516 101.49 77.845L102.355 78.9354Z" fill="#EBB376" />
        <path d="M106.92 76.2068L106.42 75.1064L105.71 75.6392L106.92 78.2184V76.2068Z" fill="#EBB376" />
        <path d="M70.82 43.7174C70.91 47.8551 70.86 49.6078 72.87 51.8086C75.87 55.1198 80.98 54.104 82.13 50.0211C83.165 46.3464 82.84 40.1971 78.85 38.3946C77.9715 37.9935 77.0046 37.8226 76.0411 37.8983C75.0776 37.9739 74.1496 38.2936 73.345 38.8269C72.5405 39.3602 71.8862 40.0894 71.4443 40.9453C71.0023 41.8013 70.7875 42.7555 70.82 43.7174Z" fill="#EBB376" />
        <path d="M67.47 36.2437C71.74 33.1615 76.51 34.9092 79.12 37.0403C81.85 39.271 81.415 43.5581 79.745 45.3307C79.9182 45.5929 80.0329 45.889 80.0812 46.1992C80.1295 46.5093 80.1103 46.8261 80.025 47.1282C80.2358 48.4547 79.9428 49.8119 79.2033 50.935C78.4638 52.0581 77.3307 52.8666 76.025 53.2028L75.79 53.2626C70.455 54.5273 64.29 50.9323 63.36 45.5548C62.795 42.2735 63.695 38.9623 67.47 36.2437Z" fill="#263238" />
        <path d="M78.79 45.6344C78.8583 46.4145 79.1937 47.1475 79.74 47.7107C80.48 48.4726 81.24 48.0344 81.375 47.1332C81.49 46.3215 81.245 44.9473 80.345 44.5141C79.445 44.0809 78.725 44.7133 78.79 45.6344Z" fill="#EBB376" />
        <path opacity="0.3" d="M73.5 97.5974C73.025 106.152 75.095 112.61 76.04 116.389C76.71 110.802 77.325 104.972 77.84 99.8281C76.075 94.0024 73.845 91.1593 73.5 97.5974Z" fill="black" />
        <path d="M71.475 172.574H64.2L63.815 170.035L71.515 169.776L71.475 172.574Z" fill="#00BAB5" />
        <path opacity="0.3" d="M64.36 68.8724L66.885 70.8641C66.885 70.8641 67.15 70.162 67.47 69.1562L65.97 61.7621L64.36 68.8724Z" fill="black" />
        <path d="M69.85 36.9357C71.155 35.4967 75.59 33.3009 79.395 35.0237C80.4803 35.516 81.4001 36.3096 82.0439 37.3093C82.6878 38.3091 83.0284 39.4725 83.025 40.6602L79.595 42.9506L69.85 36.9357Z" fill="#263238" />
        <path d="M66.35 40.7149C68.235 39.1763 70.35 33.5996 66.35 35.5415C62.35 37.4834 61.135 44.9721 66.35 40.7149Z" fill="#00BAB5" />
        <path d="M66.775 37.1398C67.59 34.7697 62.215 30.0544 58.59 34.5357C54.965 39.017 64.43 43.9614 66.775 37.1398Z" fill="#263238" />
        <path d="M75.185 40.4461C72.06 39.1216 70.505 34.1026 75.87 34.2469C81.235 34.3913 81.08 42.9506 75.185 40.4461Z" fill="#00BAB5" />
        <path d="M74.175 37.847C72.28 35.4918 74.375 29.4371 79.81 31.374C85.245 33.3109 78.525 43.2295 74.175 37.847Z" fill="#263238" />
        <path d="M83.78 84.2133C83.78 84.2133 88.5 116.329 90.16 128.966C91.885 142.087 96.925 171.504 96.925 171.504L91.325 172.355C91.325 172.355 82.475 144.297 80.01 131.526C77.32 117.609 72.01 84.2233 72.01 84.2233L83.78 84.2133Z" fill="#00BAB5" />
        <path opacity="0.6" d="M83.78 84.2133C83.78 84.2133 88.5 116.329 90.16 128.966C91.885 142.087 96.925 171.504 96.925 171.504L91.325 172.355C91.325 172.355 82.475 144.297 80.01 131.526C77.32 117.609 72.01 84.2233 72.01 84.2233L83.78 84.2133Z" fill="black" />
        <path d="M85.78 59.0434C87.86 59.5413 90.425 65.2375 90.425 65.2375L85.47 71.5611C85.47 71.5611 80.35 64.3463 81.035 62.1455C81.745 59.85 83.255 58.431 85.78 59.0434Z" fill="#263238" />
        <path d="M79 58.7845C79.685 58.8841 79.05 57.3256 78.765 57.1613C78.11 56.7729 69.765 55.9912 69.86 56.8675C69.9105 57.3905 70.1359 57.8815 70.5 58.2617C70.875 58.5107 73 57.8235 79 58.7845Z" fill="#00BAB5" />
        <path opacity="0.6" d="M79 58.7845C79.685 58.8841 79.05 57.3256 78.765 57.1613C78.11 56.7729 69.765 55.9912 69.86 56.8675C69.9105 57.3905 70.1359 57.8815 70.5 58.2617C70.875 58.5107 73 57.8235 79 58.7845Z" fill="white" />
        <path d="M85.78 59.0434C85.78 59.0434 87.78 59.7405 83.78 84.2133H66.78C67.065 77.3221 67.075 73.0698 63.78 58.9189C66.1605 58.4297 68.5735 58.1135 71 57.9729C73.5717 57.7884 76.1533 57.7884 78.725 57.9729C82 58.2617 85.78 59.0434 85.78 59.0434Z" fill="#263238" />
        <path d="M66.5 83.2225L65.735 84.7162C65.675 84.8357 65.815 84.9552 66.01 84.9552H83.85C84 84.9552 84.13 84.8805 84.14 84.781L84.29 83.2872C84.29 83.1826 84.17 83.093 84 83.093H66.79C66.7343 83.0854 66.6776 83.0935 66.6264 83.1163C66.5751 83.1392 66.5313 83.176 66.5 83.2225Z" fill="#00BAB5" />
        <path opacity="0.6" d="M66.5 83.2225L65.735 84.7162C65.675 84.8357 65.815 84.9552 66.01 84.9552H83.85C84 84.9552 84.13 84.8805 84.14 84.781L84.29 83.2872C84.29 83.1826 84.17 83.093 84 83.093H66.79C66.7343 83.0854 66.6776 83.0935 66.6264 83.1163C66.5751 83.1392 66.5313 83.176 66.5 83.2225Z" fill="white" />
        <path d="M68.83 85.1494H68.365C68.275 85.1494 68.205 85.0996 68.21 85.0449L68.43 83.0532C68.43 82.9934 68.515 82.9486 68.605 82.9486H69.07C69.16 82.9486 69.23 82.9934 69.225 83.0532L69.005 85.0449C69 85.0897 68.92 85.1494 68.83 85.1494Z" fill="#00BAB5" />
        <path d="M80 85.1494H79.54C79.445 85.1494 79.375 85.0996 79.385 85.0449L79.6 83.0532C79.6 82.9934 79.685 82.9486 79.78 82.9486H80.24C80.33 82.9486 80.4 82.9934 80.395 83.0532L80.18 85.0449C80.18 85.0897 80.1 85.1494 80 85.1494Z" fill="#00BAB5" />
        <path opacity="0.6" d="M68.83 85.1494H68.365C68.275 85.1494 68.205 85.0996 68.21 85.0449L68.43 83.0532C68.43 82.9934 68.515 82.9486 68.605 82.9486H69.07C69.16 82.9486 69.23 82.9934 69.225 83.0532L69.005 85.0449C69 85.0897 68.92 85.1494 68.83 85.1494Z" fill="black" />
        <path opacity="0.6" d="M80 85.1494H79.54C79.445 85.1494 79.375 85.0996 79.385 85.0449L79.6 83.0532C79.6 82.9934 79.685 82.9486 79.78 82.9486H80.24C80.33 82.9486 80.4 82.9934 80.395 83.0532L80.18 85.0449C80.18 85.0897 80.1 85.1494 80 85.1494Z" fill="black" />
        <path d="M97.75 171.504L90.58 172.719L89.765 170.025L97.44 168.715L97.75 171.504Z" fill="#00BAB5" />
        <path d="M169.205 32.4992C165.391 26.4177 159.852 21.5989 153.288 18.6521C146.725 15.7054 139.431 14.763 132.329 15.9442C125.228 17.1254 118.637 20.3772 113.391 25.2882C108.145 30.1993 104.48 36.5491 102.858 43.5348C101.235 50.5205 101.73 57.8284 104.278 64.5343C106.827 71.2402 111.315 77.0429 117.175 81.2089C123.035 85.3748 130.003 87.7168 137.2 87.9387C144.396 88.1607 151.497 86.2525 157.605 82.4556C161.661 79.9342 165.178 76.6419 167.956 72.7666C170.734 68.8914 172.719 64.5091 173.796 59.8701C174.873 55.2312 175.022 50.4263 174.234 45.73C173.447 41.0336 171.738 36.5378 169.205 32.4992ZM113.96 66.8558C110.952 62.0565 109.44 56.4767 109.616 50.8219C109.792 45.1671 111.648 39.6912 114.949 35.0867C118.25 30.4823 122.848 26.956 128.161 24.9538C133.475 22.9516 139.265 22.5635 144.8 23.8384C150.335 25.1134 155.367 27.9942 159.257 32.1165C163.148 36.2389 165.725 41.4177 166.66 46.998C167.595 52.5783 166.848 58.3095 164.513 63.467C162.178 68.6244 158.359 72.9764 153.54 75.9727C150.34 77.9621 146.777 79.3042 143.056 79.9224C139.335 80.5406 135.528 80.4228 131.853 79.5757C128.177 78.7287 124.705 77.1689 121.635 74.9856C118.565 72.8022 115.957 70.038 113.96 66.8508V66.8558Z" fill="#00BAB5" />
        <path d="M169.205 32.4992C165.391 26.4177 159.852 21.5989 153.288 18.6521C146.725 15.7054 139.431 14.763 132.329 15.9442C125.228 17.1254 118.637 20.3772 113.391 25.2882C108.145 30.1993 104.48 36.5491 102.858 43.5348C101.235 50.5205 101.73 57.8284 104.278 64.5343C106.827 71.2402 111.315 77.0429 117.175 81.2089C123.035 85.3748 130.003 87.7168 137.2 87.9387C144.396 88.1607 151.497 86.2525 157.605 82.4556C161.661 79.9342 165.178 76.6419 167.956 72.7666C170.734 68.8914 172.719 64.5091 173.796 59.8701C174.873 55.2312 175.022 50.4263 174.234 45.73C173.447 41.0336 171.738 36.5378 169.205 32.4992ZM113.96 66.8558C110.952 62.0565 109.44 56.4767 109.616 50.8219C109.792 45.1671 111.648 39.6912 114.949 35.0867C118.25 30.4823 122.848 26.956 128.161 24.9538C133.475 22.9516 139.265 22.5635 144.8 23.8384C150.335 25.1134 155.367 27.9942 159.257 32.1165C163.148 36.2389 165.725 41.4177 166.66 46.998C167.595 52.5783 166.848 58.3095 164.513 63.467C162.178 68.6244 158.359 72.9764 153.54 75.9727C150.34 77.9621 146.777 79.3042 143.056 79.9224C139.335 80.5406 135.528 80.4228 131.853 79.5757C128.177 78.7287 124.705 77.1689 121.635 74.9856C118.565 72.8022 115.957 70.038 113.96 66.8508V66.8558Z" fill="#00BAB5" />
        <path opacity="0.5" d="M169.205 32.4992C165.391 26.4177 159.852 21.5989 153.288 18.6521C146.725 15.7054 139.431 14.763 132.329 15.9442C125.228 17.1254 118.637 20.3772 113.391 25.2882C108.145 30.1993 104.48 36.5491 102.858 43.5348C101.235 50.5205 101.73 57.8284 104.278 64.5343C106.827 71.2402 111.315 77.0429 117.175 81.2089C123.035 85.3748 130.003 87.7168 137.2 87.9387C144.396 88.1607 151.497 86.2525 157.605 82.4556C161.661 79.9342 165.178 76.6419 167.956 72.7666C170.734 68.8914 172.719 64.5091 173.796 59.8701C174.873 55.2312 175.022 50.4263 174.234 45.73C173.447 41.0336 171.738 36.5378 169.205 32.4992ZM113.96 66.8558C110.952 62.0565 109.44 56.4767 109.616 50.8219C109.792 45.1671 111.648 39.6912 114.949 35.0867C118.25 30.4823 122.848 26.956 128.161 24.9538C133.475 22.9516 139.265 22.5635 144.8 23.8384C150.335 25.1134 155.367 27.9942 159.257 32.1165C163.148 36.2389 165.725 41.4177 166.66 46.998C167.595 52.5783 166.848 58.3095 164.513 63.467C162.178 68.6244 158.359 72.9764 153.54 75.9727C150.34 77.9621 146.777 79.3042 143.056 79.9224C139.335 80.5406 135.528 80.4228 131.853 79.5757C128.177 78.7287 124.705 77.1689 121.635 74.9856C118.565 72.8022 115.957 70.038 113.96 66.8508V66.8558Z" fill="white" />
        <path opacity="0.2" d="M165.1 35.0536C168.405 40.3274 170.066 46.4586 169.872 52.6721C169.678 58.8856 167.638 64.9024 164.011 69.9616C160.383 75.0209 155.331 78.8954 149.493 81.0954C143.654 83.2954 137.292 83.722 131.21 82.3213C125.128 80.9207 119.6 77.7556 115.324 73.2262C111.048 68.6969 108.217 63.0068 107.188 56.8752C106.16 50.7437 106.98 44.4461 109.545 38.7788C112.11 33.1114 116.305 28.3287 121.6 25.0355C125.117 22.8481 129.031 21.3721 133.121 20.6918C137.21 20.0115 141.394 20.1401 145.434 21.0705C149.474 22.0008 153.29 23.7145 156.664 26.1138C160.038 28.5131 162.905 31.5508 165.1 35.0536Z" fill="#FAFAFA" />
        <path opacity="0.1" d="M169.585 47.2527L120.585 77.7155C116.589 75.0154 113.269 71.4382 110.88 67.2591L164.38 33.993C167.11 37.9586 168.891 42.4947 169.585 47.2527Z" fill="#E6E6E6" />
    </g>
    <path d="M63.7188 217.18L66.2969 208.625H68.9062L64.9453 220H62.5L58.5547 208.625H61.1562L63.7188 217.18ZM74.6797 219.141C74.1224 219.818 73.3516 220.156 72.3672 220.156C71.4609 220.156 70.7682 219.896 70.2891 219.375C69.8151 218.854 69.5729 218.091 69.5625 217.086V211.547H71.8203V217.008C71.8203 217.888 72.2214 218.328 73.0234 218.328C73.7891 218.328 74.3151 218.062 74.6016 217.531V211.547H76.8672V220H74.7422L74.6797 219.141ZM80.9531 220H78.6875V211.547H80.9531V220ZM78.5547 209.359C78.5547 209.021 78.6667 208.742 78.8906 208.523C79.1198 208.305 79.4297 208.195 79.8203 208.195C80.2057 208.195 80.513 208.305 80.7422 208.523C80.9714 208.742 81.0859 209.021 81.0859 209.359C81.0859 209.703 80.9688 209.984 80.7344 210.203C80.5052 210.422 80.2005 210.531 79.8203 210.531C79.4401 210.531 79.1328 210.422 78.8984 210.203C78.6693 209.984 78.5547 209.703 78.5547 209.359ZM89.1875 220H86.9219V208H89.1875V220ZM90.7031 215.695C90.7031 214.857 90.8646 214.109 91.1875 213.453C91.5104 212.797 91.974 212.289 92.5781 211.93C93.1875 211.57 93.8932 211.391 94.6953 211.391C95.8359 211.391 96.7656 211.74 97.4844 212.438C98.2083 213.135 98.612 214.083 98.6953 215.281L98.7109 215.859C98.7109 217.156 98.349 218.198 97.625 218.984C96.901 219.766 95.9297 220.156 94.7109 220.156C93.4922 220.156 92.5182 219.766 91.7891 218.984C91.0651 218.203 90.7031 217.141 90.7031 215.797V215.695ZM92.9609 215.859C92.9609 216.661 93.112 217.276 93.4141 217.703C93.7161 218.125 94.1484 218.336 94.7109 218.336C95.2578 218.336 95.6849 218.128 95.9922 217.711C96.2995 217.289 96.4531 216.617 96.4531 215.695C96.4531 214.909 96.2995 214.299 95.9922 213.867C95.6849 213.435 95.2526 213.219 94.6953 213.219C94.1432 213.219 93.7161 213.435 93.4141 213.867C93.112 214.294 92.9609 214.958 92.9609 215.859ZM95.8125 210.422H93.9609L91.8047 208H94.2656L95.8125 210.422ZM102.18 211.547L102.25 212.523C102.854 211.768 103.664 211.391 104.68 211.391C105.576 211.391 106.242 211.654 106.68 212.18C107.117 212.706 107.341 213.492 107.352 214.539V220H105.094V214.594C105.094 214.115 104.99 213.768 104.781 213.555C104.573 213.336 104.227 213.227 103.742 213.227C103.107 213.227 102.63 213.497 102.312 214.039V220H100.055V211.547H102.18ZM108.742 215.711C108.742 214.414 109.049 213.37 109.664 212.578C110.284 211.786 111.117 211.391 112.164 211.391C113.091 211.391 113.812 211.708 114.328 212.344L114.422 211.547H116.469V219.719C116.469 220.458 116.299 221.102 115.961 221.648C115.628 222.195 115.156 222.612 114.547 222.898C113.938 223.185 113.224 223.328 112.406 223.328C111.786 223.328 111.182 223.203 110.594 222.953C110.005 222.708 109.56 222.391 109.258 222L110.258 220.625C110.82 221.255 111.503 221.57 112.305 221.57C112.904 221.57 113.37 221.409 113.703 221.086C114.036 220.768 114.203 220.315 114.203 219.727V219.273C113.682 219.862 112.997 220.156 112.148 220.156C111.133 220.156 110.31 219.76 109.68 218.969C109.055 218.172 108.742 217.117 108.742 215.805V215.711ZM111 215.875C111 216.641 111.154 217.242 111.461 217.68C111.768 218.112 112.19 218.328 112.727 218.328C113.414 218.328 113.906 218.07 114.203 217.555V214C113.901 213.484 113.414 213.227 112.742 213.227C112.201 213.227 111.773 213.448 111.461 213.891C111.154 214.333 111 214.995 111 215.875ZM125.711 218.336C126.128 218.336 126.466 218.221 126.727 217.992C126.987 217.763 127.122 217.458 127.133 217.078H129.25C129.245 217.651 129.089 218.177 128.781 218.656C128.474 219.13 128.052 219.5 127.516 219.766C126.984 220.026 126.396 220.156 125.75 220.156C124.542 220.156 123.589 219.773 122.891 219.008C122.193 218.237 121.844 217.174 121.844 215.82V215.672C121.844 214.37 122.19 213.331 122.883 212.555C123.576 211.779 124.526 211.391 125.734 211.391C126.792 211.391 127.638 211.693 128.273 212.297C128.914 212.896 129.24 213.695 129.25 214.695H127.133C127.122 214.258 126.987 213.904 126.727 213.633C126.466 213.357 126.122 213.219 125.695 213.219C125.169 213.219 124.771 213.411 124.5 213.797C124.234 214.177 124.102 214.797 124.102 215.656V215.891C124.102 216.76 124.234 217.385 124.5 217.766C124.766 218.146 125.169 218.336 125.711 218.336ZM132.742 212.469C133.341 211.75 134.094 211.391 135 211.391C136.833 211.391 137.763 212.456 137.789 214.586V220H135.531V214.648C135.531 214.164 135.427 213.807 135.219 213.578C135.01 213.344 134.664 213.227 134.18 213.227C133.518 213.227 133.039 213.482 132.742 213.992V220H130.484V208H132.742V212.469ZM139.141 215.695C139.141 214.857 139.302 214.109 139.625 213.453C139.948 212.797 140.411 212.289 141.016 211.93C141.625 211.57 142.331 211.391 143.133 211.391C144.273 211.391 145.203 211.74 145.922 212.438C146.646 213.135 147.049 214.083 147.133 215.281L147.148 215.859C147.148 217.156 146.786 218.198 146.062 218.984C145.339 219.766 144.367 220.156 143.148 220.156C141.93 220.156 140.956 219.766 140.227 218.984C139.503 218.203 139.141 217.141 139.141 215.797V215.695ZM141.398 215.859C141.398 216.661 141.549 217.276 141.852 217.703C142.154 218.125 142.586 218.336 143.148 218.336C143.695 218.336 144.122 218.128 144.43 217.711C144.737 217.289 144.891 216.617 144.891 215.695C144.891 214.909 144.737 214.299 144.43 213.867C144.122 213.435 143.69 213.219 143.133 213.219C142.581 213.219 142.154 213.435 141.852 213.867C141.549 214.294 141.398 214.958 141.398 215.859ZM141.875 221.875C141.875 221.562 141.992 221.305 142.227 221.102C142.461 220.898 142.763 220.797 143.133 220.797C143.508 220.797 143.812 220.898 144.047 221.102C144.281 221.305 144.398 221.562 144.398 221.875C144.398 222.182 144.281 222.44 144.047 222.648C143.818 222.857 143.513 222.961 143.133 222.961C142.753 222.961 142.448 222.857 142.219 222.648C141.99 222.44 141.875 222.182 141.875 221.875ZM150.617 211.547L150.688 212.523C151.292 211.768 152.102 211.391 153.117 211.391C154.013 211.391 154.68 211.654 155.117 212.18C155.555 212.706 155.779 213.492 155.789 214.539V220H153.531V214.594C153.531 214.115 153.427 213.768 153.219 213.555C153.01 213.336 152.664 213.227 152.18 213.227C151.544 213.227 151.068 213.497 150.75 214.039V220H148.492V211.547H150.617ZM163.609 211.547L163.68 212.492C164.279 211.758 165.089 211.391 166.109 211.391C167.198 211.391 167.945 211.82 168.352 212.68C168.945 211.82 169.792 211.391 170.891 211.391C171.807 211.391 172.49 211.659 172.938 212.195C173.385 212.727 173.609 213.529 173.609 214.602V220H171.344V214.609C171.344 214.13 171.25 213.781 171.062 213.562C170.875 213.339 170.544 213.227 170.07 213.227C169.393 213.227 168.924 213.549 168.664 214.195L168.672 220H166.414V214.617C166.414 214.128 166.318 213.773 166.125 213.555C165.932 213.336 165.604 213.227 165.141 213.227C164.5 213.227 164.036 213.492 163.75 214.023V220H161.492V211.547H163.609ZM180.25 220C180.146 219.797 180.07 219.544 180.023 219.242C179.477 219.852 178.766 220.156 177.891 220.156C177.062 220.156 176.375 219.917 175.828 219.438C175.286 218.958 175.016 218.354 175.016 217.625C175.016 216.729 175.346 216.042 176.008 215.562C176.674 215.083 177.635 214.841 178.891 214.836H179.93V214.352C179.93 213.961 179.828 213.648 179.625 213.414C179.427 213.18 179.112 213.062 178.68 213.062C178.299 213.062 178 213.154 177.781 213.336C177.568 213.518 177.461 213.768 177.461 214.086H175.203C175.203 213.596 175.354 213.143 175.656 212.727C175.958 212.31 176.385 211.984 176.938 211.75C177.49 211.51 178.109 211.391 178.797 211.391C179.839 211.391 180.664 211.654 181.273 212.18C181.888 212.701 182.195 213.435 182.195 214.383V218.047C182.201 218.849 182.312 219.456 182.531 219.867V220H180.25ZM178.383 218.43C178.716 218.43 179.023 218.357 179.305 218.211C179.586 218.06 179.794 217.859 179.93 217.609V216.156H179.086C177.956 216.156 177.354 216.547 177.281 217.328L177.273 217.461C177.273 217.742 177.372 217.974 177.57 218.156C177.768 218.339 178.039 218.43 178.383 218.43ZM179.242 208H181.703L179.539 210.422H177.703L179.242 208ZM186.961 216.805L188.523 211.547H190.945L187.547 221.312L187.359 221.758C186.854 222.862 186.021 223.414 184.859 223.414C184.531 223.414 184.198 223.365 183.859 223.266V221.555L184.203 221.562C184.63 221.562 184.948 221.497 185.156 221.367C185.37 221.237 185.536 221.021 185.656 220.719L185.922 220.023L182.961 211.547H185.391L186.961 216.805Z" fill="#4D5971" />
</svg>