<svg width="24" height="24" viewBox="0 0 24 24" fill="none" xmlns="http://www.w3.org/2000/svg">
<path d="M6.41696 8.66788C6.41696 8.25367 6.08117 7.91788 5.66696 7.91788C5.25274 7.91788 4.91696 8.25367 4.91696 8.66788H6.41696ZM19.7528 8.66788C19.7528 8.25367 19.4171 7.91788 19.0028 7.91788C18.5886 7.91788 18.2528 8.25367 18.2528 8.66788H19.7528ZM15.3079 9.77928C15.3079 9.36507 14.9721 9.02928 14.5579 9.02928C14.1437 9.02928 13.8079 9.36507 13.8079 9.77928H15.3079ZM13.8079 17.5586C13.8079 17.9728 14.1437 18.3086 14.5579 18.3086C14.9721 18.3086 15.3079 17.9728 15.3079 17.5586H13.8079ZM10.8623 9.77928C10.8623 9.36507 10.5265 9.02928 10.1123 9.02928C9.69805 9.02928 9.36226 9.36507 9.36226 9.77928H10.8623ZM9.36226 17.5586C9.36226 17.9728 9.69805 18.3086 10.1123 18.3086C10.5265 18.3086 10.8623 17.9728 10.8623 17.5586H9.36226ZM4.00012 4.5839C3.58591 4.5839 3.25012 4.91969 3.25012 5.3339C3.25012 5.74811 3.58591 6.0839 4.00012 6.0839V4.5839ZM20.67 6.0839C21.0842 6.0839 21.42 5.74811 21.42 5.3339C21.42 4.91969 21.0842 4.5839 20.67 4.5839V6.0839ZM7.17825 5.0968C7.04727 5.48976 7.25964 5.9145 7.65259 6.04549C8.04555 6.17647 8.47029 5.9641 8.60128 5.57115L7.17825 5.0968ZM8.49433 3.5203L9.20584 3.75747L9.20589 3.7573L8.49433 3.5203ZM10.6036 2L10.6034 2.75H10.6036V2ZM14.0665 2V2.75L14.0674 2.75L14.0665 2ZM16.178 3.5203L16.8898 3.28391L16.8896 3.2833L16.178 3.5203ZM16.0686 5.57036C16.1991 5.96346 16.6236 6.1763 17.0167 6.04575C17.4098 5.9152 17.6227 5.49069 17.4921 5.09759L16.0686 5.57036ZM4.91696 8.66788V19.7811H6.41696V8.66788H4.91696ZM4.91696 19.7811C4.91696 21.4229 6.24786 22.7538 7.88961 22.7538V21.2538C7.07628 21.2538 6.41696 20.5944 6.41696 19.7811H4.91696ZM7.88961 22.7538H16.7802V21.2538H7.88961V22.7538ZM16.7802 22.7538C18.4219 22.7538 19.7528 21.4229 19.7528 19.7811H18.2528C18.2528 20.5944 17.5935 21.2538 16.7802 21.2538V22.7538ZM19.7528 19.7811V8.66788H18.2528V19.7811H19.7528ZM13.8079 9.77928V17.5586H15.3079V9.77928H13.8079ZM9.36226 9.77928V17.5586H10.8623V9.77928H9.36226ZM4.00012 6.0839H20.67V4.5839H4.00012V6.0839ZM8.60128 5.57115L9.20584 3.75747L7.78281 3.28312L7.17825 5.0968L8.60128 5.57115ZM9.20589 3.7573C9.40628 3.15566 9.9693 2.74985 10.6034 2.75L10.6038 1.25C9.32375 1.2497 8.18725 2.06884 7.78276 3.2833L9.20589 3.7573ZM10.6036 2.75H14.0665V1.25H10.6036V2.75ZM14.0674 2.75C14.7021 2.74921 15.2659 3.15514 15.4665 3.75729L16.8896 3.2833C16.4848 2.0678 15.3467 1.24842 14.0656 1.25L14.0674 2.75ZM15.4662 3.75668L16.0686 5.57036L17.4921 5.09759L16.8898 3.28391L15.4662 3.75668Z" fill="#FF4D54"/>
</svg>
